<?xml version="1.0" encoding="utf-8"?>
<!-- Generator: Adobe Illustrator 16.0.0, SVG Export Plug-In . SVG Version: 6.00 Build 0)  -->
<!DOCTYPE svg PUBLIC "-//W3C//DTD SVG 1.0//EN" "http://www.w3.org/TR/2001/REC-SVG-20010904/DTD/svg10.dtd">
<svg version="1.0" id="Layer_1" xmlns="http://www.w3.org/2000/svg" xmlns:xlink="http://www.w3.org/1999/xlink" x="0px" y="0px"
	 width="100px" height="100px" viewBox="0 0 100 100" enable-background="new 0 0 100 100" xml:space="preserve">
<path fill="#010101" d="M50.933,3.762c-20.026,0.439-30.27,14.189-30.27,27.197c0,5.187,2.007,10.071,3.008,14.743
	c1,4.672,1.189,8.699-1.471,12.813h0c-0.208,0.332-0.351,0.697-0.425,1.08c-2.286,1.84-4.288,4.269-5.917,7.094
	c-3.566,6.183-5.655,14.394-5.655,23.34v4.74v-0.001c0,0.832,0.331,1.63,0.918,2.219c0.589,0.589,1.387,0.919,2.219,0.919h75.314
	c0.833,0,1.631-0.33,2.221-0.919c0.588-0.589,0.918-1.387,0.918-2.219v-4.74c0-8.945-2.089-17.156-5.655-23.34
	c-1.624-2.815-3.605-5.255-5.884-7.094v0.001c-0.084-0.386-0.239-0.751-0.457-1.08c-2.66-4.114-2.471-8.141-1.471-12.813
	c0.999-4.672,3.006-9.555,3.006-14.743c0-13.007-10.243-26.758-30.271-27.197c-0.043,0-0.086,0-0.13,0H50.933L50.933,3.762z"/>
<path fill="#6E432C" d="M50.933,10.039c0.047,0,0.084,0,0.131,0c17.234,0.433,23.993,11.051,23.993,20.92
	c0,3.342-1.734,8.067-2.877,13.402c-0.772,3.611-1.159,7.683-0.163,11.769c-0.356-0.028-0.716-0.065-1.078-0.065h-3.303h-0.032
	c-2.482-0.043-4.053-2.086-4.053-3.138H63.55c0.005-0.098,0.005-0.197,0-0.295c0.151-0.22,0.315-0.426,0.458-0.652
	c3.035-4.802,4.773-11.113,4.773-18.045c0-1.801-0.084-3.203-0.295-4.413c-0.211-1.21-0.466-2.37-1.602-3.465
	c-1.136-1.096-3.074-1.253-4.119-0.981c-1.044,0.272-1.705,0.673-2.354,1.047c-1.295,0.748-2.445,1.437-3.498,1.7
	c-1.052,0.263-1.87,0.326-3.367-0.621c-4.526-2.864-8.653-5.078-13.042-4.544c-2.195,0.268-4.439,1.606-5.655,3.662
	c-1.215,2.055-1.635,4.56-1.635,7.616c0,6.933,1.737,13.243,4.773,18.044c0.143,0.228,0.307,0.434,0.457,0.654v-0.002
	c-0.005,0.098-0.005,0.197,0,0.295c0,1.052-1.57,3.095-4.053,3.138H34.36h-3.302c-0.363,0-0.723,0.036-1.079,0.065
	c0.997-4.086,0.609-8.158-0.164-11.769c-1.142-5.335-2.876-10.06-2.876-13.402C26.94,21.091,33.699,10.472,50.933,10.039
	L50.933,10.039L50.933,10.039z"/>
<path fill="#EABF86" d="M41.257,28.868c1.21-0.148,4.836,1.042,8.924,3.628c2.829,1.791,5.893,2.025,8.238,1.438
	c1.704-0.426,2.951-1.127,3.987-1.732c0.038,0.567,0.099,0.898,0.099,1.732c0,5.86-1.527,11.128-3.792,14.71
	c-2.265,3.583-5.012,5.329-7.715,5.329c-2.703,0-5.45-1.746-7.714-5.329c-2.265-3.582-3.792-8.85-3.792-14.71
	c0-2.394,0.438-3.828,0.784-4.413S40.651,28.941,41.257,28.868L41.257,28.868z"/>
<path fill="#EAD75C" d="M43.284,57.699c2.278,1.602,4.889,2.549,7.714,2.549c2.826,0,5.437-0.947,7.715-2.549
	c1.797,2.767,5.101,4.604,8.858,4.641h0.032h3.335c3.3,0,6.853,2.479,9.74,7.485c2.888,5.007,4.838,12.259,4.838,20.202v1.602
	H16.479v-1.602c0-7.943,1.951-15.195,4.838-20.202c2.887-5.006,6.44-7.485,9.741-7.485h3.336h0.032
	C38.184,62.303,41.485,60.465,43.284,57.699L43.284,57.699z"/>
</svg>
