<?xml version="1.0" encoding="utf-8"?>
<!-- Generator: Adobe Illustrator 24.3.0, SVG Export Plug-In . SVG Version: 6.00 Build 0)  -->
<svg version="1.1" id="Layer_1" xmlns="http://www.w3.org/2000/svg" xmlns:xlink="http://www.w3.org/1999/xlink" x="0px" y="0px"
	 viewBox="0 0 100 100" style="enable-background:new 0 0 100 100;" xml:space="preserve">
<style type="text/css">
	.st0{fill:#FAC312;}
</style>
<g>
	<path d="M10.4,69.3c-5,0-9.1,4.1-9.1,9.1s4.1,9.1,9.1,9.1s9.1-4.1,9.1-9.1C19.5,73.4,15.5,69.3,10.4,69.3z M10.4,82.1
		c-2,0-3.7-1.7-3.7-3.7s1.7-3.7,3.7-3.7s3.7,1.7,3.7,3.7S12.5,82.1,10.4,82.1z"/>
	<path d="M35.2,69.3c-5,0-9.1,4.1-9.1,9.1s4.1,9.1,9.1,9.1s9.1-4.1,9.1-9.1C44.3,73.4,40.3,69.3,35.2,69.3z M35.2,82.1
		c-2,0-3.7-1.7-3.7-3.7s1.7-3.7,3.7-3.7s3.7,1.7,3.7,3.7S37.3,82.1,35.2,82.1z"/>
	<rect x="1.3" y="58.9" width="98.5" height="5.4"/>
	<path class="st0" d="M1.3,13.5v40h98.5v-40H1.3z M11.7,48.1h-5V18.9h5V48.1z M22.1,48.1h-5.2V18.9h5.2V48.1z M32.4,48.1h-5.2V18.9
		h5.2V48.1z M42.8,48.1h-5.2V18.9h5.2V48.1z M53.1,48.1h-5.2V18.9h5.2V48.1z M63.4,48.1h-5.2V18.9h5.2V48.1z M73.8,48.1h-5.2V18.9
		h5.2V48.1z M84.1,48.1h-5.2V18.9h5.2V48.1z M94.5,48.1h-5.2V18.9h5.2V48.1z"/>
	<path d="M73,83.2V69.5h-0.2H50.6v5.4h17v8.3c-1.3,0.9-2.2,2.4-2.2,4.1h9.8C75.2,85.6,74.2,84.1,73,83.2z"/>
</g>
</svg>
