<?xml version="1.0" encoding="utf-8"?>
<!-- Generator: Adobe Illustrator 16.0.0, SVG Export Plug-In . SVG Version: 6.00 Build 0)  -->
<!DOCTYPE svg PUBLIC "-//W3C//DTD SVG 1.0//EN" "http://www.w3.org/TR/2001/REC-SVG-20010904/DTD/svg10.dtd">
<svg version="1.0" id="Layer_1" xmlns="http://www.w3.org/2000/svg" xmlns:xlink="http://www.w3.org/1999/xlink" x="0px" y="0px"
	 width="864px" height="1296px" viewBox="0 0 864 1296" enable-background="new 0 0 864 1296" xml:space="preserve">
<g>
	<path fill="#FFFFFF" d="M393.97,1050.672c-2.307-20.417-4.625-40.83-6.916-61.249c-0.927-8.264-1.615-16.562-2.844-24.78
		c-0.256-1.713-2.123-3.955-3.76-4.56c-10.383-3.821-21.12-6.739-31.327-10.956c-9.993-4.128-19.496-9.449-29.67-14.472
		c-22.907,18.499-46.067,37.202-68.585,55.386c-21.125-21.134-41.977-41.994-63.503-63.531c0.945-1.217,2.699-3.547,4.53-5.812
		c15.831-19.596,31.581-39.256,47.606-58.689c2.816-3.414,2.601-5.678,0.859-9.619c-7.812-17.677-15.209-35.547-22.249-53.545
		c-1.551-3.965-2.917-5.878-7.433-6.312c-26.442-2.533-52.856-5.382-79.25-8.395c-1.758-0.199-4.636-2.582-4.674-4.014
		c-0.36-13.368-0.214-26.751-0.214-40.706c68.998,0,137.49,0,206.59,0c1.284,33.144,14.011,60.892,40.114,81.799
		c19.062,15.271,41.069,22.823,65.468,22.672c28.838-0.181,53.722-10.573,74.083-30.968c20.175-20.203,29.864-45.132,30.755-73.745
		c68.984,0,137.312,0,206.604,0c0,14.097,0.117,27.878-0.211,41.647c-0.03,1.193-2.923,3.151-4.646,3.344
		c-26.17,2.955-52.346,5.854-78.563,8.295c-5.109,0.477-6.597,2.584-8.323,7.046c-6.896,17.809-14.289,35.435-22.044,52.885
		c-1.752,3.943-1.948,6.206,0.865,9.619c15.882,19.255,31.48,38.738,47.168,58.149c1.877,2.318,3.713,4.669,5.061,6.367
		c-21.225,21.201-42.087,42.045-63.583,63.517c-22.261-17.976-45.56-36.787-66.909-54.024c-21.929,8.36-42.375,16.046-62.675,24.104
		c-1.836,0.729-3.654,3.759-3.898,5.899c-2.97,25.933-5.632,51.9-8.419,77.854c-0.244,2.281-0.803,4.53-1.216,6.794
		C453.163,1050.672,423.566,1050.672,393.97,1050.672z"/>
	<path fill="#FFFFFF" d="M448.077,340.356c4.216,1.059,8.463,2,12.643,3.188c37.11,10.568,62.637,48.567,57.727,85.871
		c-5.456,41.466-38.744,71.609-79.389,71.89c-39.877,0.275-73.935-28.582-80.009-67.802c-6.839-44.164,22.186-84.319,66.434-91.958
		c1.094-0.188,2.115-0.786,3.171-1.189C435.128,340.356,441.603,340.356,448.077,340.356z"/>
	<path fill="#FFFFFF" d="M281.505,696.831c-0.123-2.71-0.312-4.965-0.312-7.223c-0.021-30.271-0.08-60.538,0.002-90.809
		c0.121-44.528,30.883-75.202,75.438-75.235c55.224-0.041,110.448-0.122,165.67,0.029c36.076,0.104,65.416,24.132,72.088,58.777
		c0.863,4.501,1.087,9.185,1.102,13.784c0.095,31.656,0.061,63.312,0.044,94.966c0,1.783-0.218,3.57-0.355,5.709
		C490.63,696.831,386.511,696.831,281.505,696.831z"/>
	<path fill="#FFFFFF" d="M252.686,542.835c-14.018,24.034-13.394,50.442-13.164,76.845c0.201,23.115,0.042,46.235,0.041,69.354
		c0,2.477,0,4.956,0,7.806c-37.949,0-75.057,0-111.98,0c-0.417-0.727-0.841-1.12-0.837-1.512c0.253-32.805-0.2-65.639,1.061-98.404
		c0.991-25.707,26.926-52.307,52.614-53.793C204.102,541.756,227.926,542.835,252.686,542.835z"/>
	<path fill="#FFFFFF" d="M749.271,696.954c-37.108,0-74.049,0-112.104,0c0-2.914,0.004-5.579,0-8.241
		c-0.062-32.134-0.074-64.266-0.2-96.398c-0.063-15.956-3.908-31.062-10.76-45.438c-0.667-1.405-1.183-2.884-2.286-5.614
		c28.235,2.289,55.816-3.669,82.705,4.327c22.888,6.807,41.652,29.295,42.392,53.037
		C750.028,631.121,749.271,663.671,749.271,696.954z"/>
	<path fill="#FFFFFF" d="M265.866,377.69c53.253-0.018,88.75,54.137,67.771,100.726c-1.738,3.861-3.922,6.167-8.249,7.193
		c-21.727,5.145-39.929,16.396-55.5,32.31c-2.029,2.076-5.988,3.591-8.857,3.316c-36.478-3.517-64.872-33.905-65.463-69.622
		c-0.615-37.061,26.207-68.402,62.963-73.495C261.493,377.707,264.522,377.762,265.866,377.69z"/>
	<path fill="#FFFFFF" d="M609.041,377.69c37.722-0.047,70.569,30.727,72.066,67.521c1.615,39.714-26.938,72.837-65.938,76.095
		c-2.679,0.223-6.329-1.294-8.232-3.259c-15.681-16.165-34.213-27.161-56.037-32.878c-2.795-0.731-5.971-3.45-7.233-6.081
		C521.483,432.955,557.17,377.754,609.041,377.69z"/>
</g>
</svg>
