<?xml version="1.0" encoding="utf-8"?>
<!-- Generator: Adobe Illustrator 16.0.0, SVG Export Plug-In . SVG Version: 6.00 Build 0)  -->
<!DOCTYPE svg PUBLIC "-//W3C//DTD SVG 1.1//EN" "http://www.w3.org/Graphics/SVG/1.1/DTD/svg11.dtd">
<svg version="1.1" id="Layer_1" xmlns="http://www.w3.org/2000/svg" xmlns:xlink="http://www.w3.org/1999/xlink" x="0px" y="0px"
	 width="864px" height="1296px" viewBox="0 0 864 1296" enable-background="new 0 0 864 1296" xml:space="preserve">
<path fill="#4AB7F6" d="M570.834,329.288c-95.279,0-172.518,77.239-172.518,172.517c0,95.279,77.238,172.518,172.518,172.518
	c95.278,0,172.518-77.239,172.518-172.518C743.352,406.526,666.112,329.288,570.834,329.288z M643.944,485.967
	c-16.324,24.862-37.44,74.169-62.787,90.008c-16.743,10.463-31.642-4.831-43.188-15.631c-15.435-14.436-60.659-42.457-37.866-68.071
	c14.775-16.597,63.215,7.524,63.215,25.686c0-9.045,38.295-58.204,47.376-64.645c21.003-14.897,47.203,11.383,33.257,32.643
	C645.457,483.662,646.058,482.748,643.944,485.967z"/>
<path fill="#FEDD90" d="M191.834,863.973c-0.022,17.967,2.745,47.106-23.575,47.234c-32.053,0.147-64.107,0.062-96.161,0.041
	C29.069,911.21,48.208,757,48.208,725.58c0-27.174-1.74-51.912,32.557-51.244c37.032,0.717,74.073,0.311,111.109,0.354
	c11.442,11.846,2.512,61.974,2.517,77.78C194.397,774.643,206.464,847.219,191.834,863.973
	C191.825,871.855,194.492,860.93,191.834,863.973z"/>
<path fill="#FE8845" d="M804.138,690.204c-22.314-2.849-44.367,2.577-63.174,14.819c-4.608,2.999-46.665,42.935-43.776,45.823
	c-56.928,0-110.763-4.172-165.269-21.767c-55.11-22.091-98.599-64.263-159.38-71.665c-57.109-6.955-117.165,10.508-168.92,33.5
	c-2.224,0.987-4.274,1.833-6.179,2.597c1.349,19.81-3.051,47.851-3.048,58.958c0.006,22.173,12.073,94.749-2.557,111.503
	c2.657-3.043-0.01,7.883,0,0c-0.011,8.517,0.601,19.539-1.551,28.797c109.051,0.826,193.467,76.902,298.92,92.411
	c108.859,16.009,190.457-61.426,254.487-139.429c38.816,0,46.977-28.117,49.98-60.078
	C817.425,756.098,875.242,699.281,804.138,690.204z"/>
</svg>
