<?xml version="1.0" encoding="utf-8"?>
<!-- Generator: Adobe Illustrator 16.0.0, SVG Export Plug-In . SVG Version: 6.00 Build 0)  -->
<!DOCTYPE svg PUBLIC "-//W3C//DTD SVG 1.1//EN" "http://www.w3.org/Graphics/SVG/1.1/DTD/svg11.dtd">
<svg version="1.1" id="Layer_1" xmlns="http://www.w3.org/2000/svg" xmlns:xlink="http://www.w3.org/1999/xlink" x="0px" y="0px"
	 width="864px" height="1296px" viewBox="0 0 864 1296" enable-background="new 0 0 864 1296" xml:space="preserve">
<g>
	<path fill-rule="evenodd" clip-rule="evenodd" fill="#FFFFFF" d="M387.627,1131.057c-2.307-20.417-4.625-40.83-6.916-61.249
		c-0.927-8.264-1.615-16.563-2.844-24.781c-0.256-1.712-2.123-3.955-3.76-4.559c-10.382-3.821-21.12-6.739-31.327-10.956
		c-9.993-4.128-19.496-9.449-29.67-14.472c-22.907,18.499-46.067,37.202-68.585,55.386c-21.124-21.134-41.976-41.994-63.503-63.532
		c0.945-1.216,2.699-3.546,4.53-5.812c15.831-19.596,31.581-39.256,47.606-58.689c2.816-3.415,2.601-5.678,0.859-9.62
		c-7.812-17.676-15.209-35.546-22.249-53.545c-1.551-3.964-2.917-5.877-7.433-6.311c-26.442-2.533-52.856-5.382-79.25-8.395
		c-1.758-0.199-4.636-2.582-4.674-4.013c-0.36-13.368-0.214-26.751-0.214-40.706c68.998,0,137.491,0,206.59,0
		c1.284,33.143,14.011,60.891,40.114,81.799c19.062,15.27,41.07,22.823,65.468,22.671c28.838-0.18,53.722-10.573,74.083-30.967
		c20.175-20.204,29.864-45.132,30.755-73.746c68.984,0,137.312,0,206.603,0c0,14.097,0.118,27.878-0.21,41.648
		c-0.031,1.193-2.923,3.151-4.646,3.344c-26.17,2.955-52.346,5.853-78.563,8.295c-5.11,0.476-6.597,2.584-8.324,7.046
		c-6.896,17.808-14.289,35.434-22.044,52.884c-1.752,3.944-1.948,6.206,0.866,9.619c15.881,19.255,31.48,38.739,47.168,58.15
		c1.876,2.318,3.712,4.669,5.06,6.367c-21.225,21.201-42.087,42.045-63.583,63.517c-22.261-17.976-45.559-36.787-66.909-54.025
		c-21.929,8.361-42.375,16.046-62.675,24.104c-1.836,0.729-3.654,3.758-3.898,5.899c-2.97,25.933-5.632,51.9-8.419,77.854
		c-0.244,2.281-0.803,4.53-1.216,6.794C446.82,1131.057,417.224,1131.057,387.627,1131.057z"/>
	<path fill-rule="evenodd" clip-rule="evenodd" fill="#FFFFFF" d="M441.734,420.741c4.216,1.059,8.463,2,12.643,3.189
		c37.11,10.568,62.637,48.567,57.726,85.871c-5.456,41.466-38.744,71.609-79.388,71.889c-39.877,0.276-73.935-28.582-80.009-67.801
		c-6.839-44.164,22.186-84.32,66.434-91.958c1.093-0.189,2.115-0.786,3.171-1.19C428.785,420.741,435.26,420.741,441.734,420.741z"
		/>
	<path fill-rule="evenodd" clip-rule="evenodd" fill="#FFFFFF" d="M275.162,777.216c-0.123-2.71-0.312-4.965-0.313-7.223
		c-0.02-30.27-0.079-60.538,0.003-90.808c0.121-44.529,30.883-75.203,75.438-75.236c55.224-0.041,110.448-0.122,165.67,0.03
		c36.076,0.104,65.416,24.131,72.088,58.777c0.863,4.501,1.087,9.184,1.101,13.784c0.095,31.656,0.061,63.312,0.044,94.966
		c0,1.783-0.217,3.57-0.355,5.709C484.287,777.216,380.168,777.216,275.162,777.216z"/>
	<path fill-rule="evenodd" clip-rule="evenodd" fill="#FFFFFF" d="M246.343,623.22c-14.018,24.034-13.394,50.442-13.164,76.844
		c0.201,23.116,0.042,46.236,0.041,69.354c0,2.477,0,4.956,0,7.806c-37.949,0-75.057,0-111.98,0
		c-0.417-0.727-0.841-1.121-0.837-1.512c0.253-32.805-0.2-65.639,1.061-98.404c0.991-25.707,26.926-52.307,52.614-53.793
		C197.759,622.141,221.583,623.22,246.343,623.22z"/>
	<path fill-rule="evenodd" clip-rule="evenodd" fill="#FFFFFF" d="M742.928,777.339c-37.109,0-74.049,0-112.105,0
		c0-2.914,0.004-5.579,0-8.241c-0.061-32.134-0.074-64.266-0.2-96.399c-0.063-15.956-3.908-31.062-10.76-45.438
		c-0.667-1.406-1.182-2.884-2.286-5.615c28.236,2.29,55.817-3.668,82.705,4.328c22.888,6.806,41.653,29.295,42.392,53.037
		C743.686,711.506,742.928,744.056,742.928,777.339z"/>
	<path fill-rule="evenodd" clip-rule="evenodd" fill="#FFFFFF" d="M259.524,458.075c53.252-0.017,88.749,54.137,67.77,100.726
		c-1.738,3.861-3.922,6.167-8.249,7.193c-21.726,5.145-39.929,16.396-55.5,32.31c-2.029,2.076-5.989,3.59-8.857,3.316
		c-36.478-3.516-64.872-33.905-65.464-69.622c-0.615-37.06,26.207-68.402,62.963-73.495
		C255.15,458.092,258.179,458.146,259.524,458.075z"/>
	<path fill-rule="evenodd" clip-rule="evenodd" fill="#FFFFFF" d="M602.698,458.075c37.722-0.047,70.57,30.727,72.067,67.522
		c1.615,39.713-26.938,72.837-65.938,76.094c-2.679,0.223-6.329-1.294-8.232-3.258c-15.681-16.165-34.213-27.162-56.037-32.878
		c-2.795-0.732-5.971-3.451-7.234-6.081C515.141,513.34,550.827,458.139,602.698,458.075z"/>
</g>
</svg>
