<?xml version="1.0" encoding="utf-8"?>
<!-- Generator: Adobe Illustrator 24.3.0, SVG Export Plug-In . SVG Version: 6.00 Build 0)  -->
<svg version="1.1" id="Layer_1" xmlns="http://www.w3.org/2000/svg" xmlns:xlink="http://www.w3.org/1999/xlink" x="0px" y="0px"
	 viewBox="0 0 100 100" style="enable-background:new 0 0 100 100;" xml:space="preserve">
<style type="text/css">
	.st0{fill:#FFFFFF;}
</style>
<path class="st0" d="M94.2,60.8H94V47.7c0-0.4-0.2-0.9-0.4-1.2L83.9,35c-0.3-0.4-0.9-0.6-1.4-0.6H69.2c-1,0-1.8,0.8-1.8,1.8v24.6
	H5.8c-1,0-1.8,0.8-1.8,1.8v7c0,1,0.8,1.8,1.8,1.8h4.9c0.2,0,0.7-0.1,0.7-0.7c0-3.3,2.7-6,6-6s6,2.7,6,6c0,0.6,0.5,0.7,0.7,0.7h1.4
	c0.2,0,0.7-0.1,0.7-0.7c0-3.3,2.7-6,6-6s6,2.7,6,6c0,0.6,0.5,0.7,0.7,0.7h10.7c0.2,0,0.7-0.1,0.7-0.7c0-3.3,2.7-6,6-6s6,2.7,6,6
	c0,0.6,0.5,0.7,0.7,0.7h12c0.2,0,0.7-0.1,0.7-0.7c0-3.3,2.7-6,6-6s6,2.7,6,6c0,0.6,0.5,0.7,0.7,0.7h5.8c1,0,1.8-0.8,1.8-1.8v-7
	C96.1,61.6,95.3,60.8,94.2,60.8z M87.4,47.4c-0.1,0.2-0.3,0.3-0.5,0.3l0,0H72.5c-0.3,0-0.6-0.3-0.6-0.6v-8c0-0.3,0.3-0.6,0.6-0.6
	h7.9c0.2,0,0.3,0.1,0.4,0.2l6.5,8C87.5,47,87.5,47.2,87.4,47.4z"/>
<path class="st0" d="M85.5,70.7c0,2.1-1.7,3.8-3.8,3.8c-2.1,0-3.8-1.7-3.8-3.8s1.7-3.8,3.8-3.8C83.8,66.9,85.5,68.6,85.5,70.7z"/>
<path class="st0" d="M60.1,70.7c0,2.1-1.7,3.8-3.8,3.8s-3.8-1.7-3.8-3.8s1.7-3.8,3.8-3.8C58.4,66.9,60.1,68.6,60.1,70.7z"/>
<circle class="st0" cx="32.2" cy="70.7" r="3.8"/>
<circle class="st0" cx="17.3" cy="70.7" r="3.8"/>
</svg>
