<?xml version="1.0" encoding="utf-8"?>
<!-- Generator: Adobe Illustrator 24.3.0, SVG Export Plug-In . SVG Version: 6.00 Build 0)  -->
<svg version="1.1" id="Layer_1" xmlns="http://www.w3.org/2000/svg" xmlns:xlink="http://www.w3.org/1999/xlink" x="0px" y="0px"
	 viewBox="0 0 100 100" style="enable-background:new 0 0 100 100;" xml:space="preserve">
<style type="text/css">
	.st0{fill:#FFFFFF;}
	.st1{fill:#FAC312;}
</style>
<path class="st0" d="M46.9,57.8c3.3,0,6.5,0,9.8,0c5,0,5,0,6.9-4.7c0.1,1.7,0.1,3,0.2,4.4c11.1,0,22.1,0,33.2,0
	c-1.6-5.1-3.3-9.9-4.7-14.7c-0.5-1.5-1.1-2.1-2.8-2.1c-7.9,0.1-15.7,0-23.6,0c-0.6,0-1.2,0.1-2,0.1c-0.1,1.4-0.1,2.7-0.2,4
	c-2.7-8.2-8-13.3-16.7-15.1C46.9,39.2,46.9,48.2,46.9,57.8z"/>
<path class="st0" d="M41.1,57.7c0-13.2,0-26.2,0-39.3c-5.6,0-11.1,0-16.6,0c0,13.1,0,26.2,0,39.3C30.1,57.7,35.5,57.7,41.1,57.7z"/>
<path class="st0" d="M1.8,80.1c4.1-8.9,9.9-12.4,17.4-10.5c7.1,1.7,11,7.7,10.6,16.3c2,0,3.9,0,5.9,0c-0.7-6.2,1.2-11.2,6.5-14.5
	c5.2-3.3,10.5-2.7,15.7,0.4c0-2.8,0-5.5,0-8.1c-18.8,0-37.4,0-56.1,0C1.8,69.1,1.8,74.5,1.8,80.1z"/>
<path class="st0" d="M18.5,30.2c-0.3-0.1-0.4-0.1-0.5-0.1C6.2,31.4-1.9,46.1,3.3,56.7c0.3,0.6,1.3,1.1,1.9,1.1c4,0.1,8,0.1,12,0
	c0.4,0,0.9-0.2,1.3-0.3C18.5,48.3,18.5,39.2,18.5,30.2z"/>
<path class="st0" d="M69.9,85.9c-0.5-8.6,3.4-14.6,10.5-16.4c7.5-1.9,13.3,1.7,17.3,10.4c0-5.4,0-10.9,0-16.3c-11.4,0-22.7,0-34,0
	c0,7.5,0,14.8,0,22.2C65.9,85.9,67.8,85.9,69.9,85.9z"/>
<path class="st0" d="M15.8,91.5c4.7,0,8.4-3.7,8.4-8.4c0-4.6-3.8-8.4-8.5-8.4c-4.6,0-8.5,3.8-8.4,8.5C7.4,87.8,11.2,91.6,15.8,91.5z
	"/>
<path class="st0" d="M83.8,91.5c4.7,0,8.5-3.6,8.6-8.3c0.1-4.6-3.7-8.5-8.4-8.5c-4.7-0.1-8.5,3.6-8.5,8.3
	C75.4,87.7,79.1,91.5,83.8,91.5z"/>
<path class="st0" d="M58.1,83.2c0-4.7-3.7-8.4-8.4-8.5c-4.7,0-8.5,3.8-8.4,8.4c0,4.7,3.7,8.4,8.4,8.4C54.4,91.5,58.1,87.9,58.1,83.2
	z"/>
<path class="st0" d="M46.9,57.8c0-9.6,0-18.7,0-28c8.7,1.8,14,6.9,16.7,15.1c0.1-1.3,0.1-2.6,0.2-4c0.7,0,1.4-0.1,2-0.1
	c7.9,0,15.7,0.1,23.6,0c1.7,0,2.4,0.6,2.8,2.1c1.5,4.8,3.1,9.6,4.7,14.7c-11.1,0-22.1,0-33.2,0c-0.1-1.4-0.1-2.8-0.2-4.4
	c-1.9,4.7-1.9,4.7-6.9,4.7C53.5,57.8,50.2,57.8,46.9,57.8z"/>
<path class="st1" d="M41.1,57.7c-5.6,0-11,0-16.6,0c0-13.1,0-26.1,0-39.3c5.5,0,11,0,16.6,0C41.1,31.6,41.1,44.5,41.1,57.7z
	 M35.4,29.5c0-1.9,0-3.6,0-5.3c-1.9,0-3.6,0-5.4,0c0,1.8,0,3.5,0,5.3C31.9,29.5,33.6,29.5,35.4,29.5z M30.1,35.4c0,1.9,0,3.6,0,5.3
	c1.9,0,3.6,0,5.3,0c0-1.9,0-3.5,0-5.3C33.7,35.4,32,35.4,30.1,35.4z M35.4,52c0-1.8,0-3.6,0-5.4c-1.8,0-3.6,0-5.3,0
	c0,1.9,0,3.5,0,5.4C31.8,52,33.5,52,35.4,52z"/>
<path class="st0" d="M1.8,80.1c0-5.5,0-10.9,0-16.5c18.7,0,37.3,0,56.1,0c0,2.6,0,5.2,0,8.1c-5.2-3.1-10.5-3.7-15.7-0.4
	c-5.2,3.3-7.2,8.3-6.5,14.5c-2.1,0-4,0-5.9,0c0.4-8.6-3.5-14.5-10.6-16.3C11.7,67.7,5.9,71.2,1.8,80.1z"/>
<path class="st0" d="M18.5,30.2c0,9,0,18.1,0,27.3c-0.4,0.1-0.8,0.3-1.3,0.3c-4,0-8,0.1-12,0c-0.7,0-1.7-0.6-1.9-1.1
	c-5.2-10.6,3-25.3,14.7-26.6C18.1,30,18.2,30.1,18.5,30.2z"/>
<path class="st0" d="M69.9,85.9c-2.1,0-4,0-6.1,0c0-7.4,0-14.7,0-22.2c11.3,0,22.5,0,34,0c0,5.4,0,10.9,0,16.3
	c-4-8.7-9.9-12.3-17.3-10.4C73.3,71.3,69.4,77.2,69.9,85.9z"/>
<path class="st0" d="M15.8,91.5c-4.7,0-8.5-3.7-8.5-8.4c0-4.6,3.8-8.5,8.4-8.5c4.7,0,8.5,3.8,8.5,8.4C24.3,87.8,20.6,91.5,15.8,91.5
	z M16.1,85.9c1.4-0.2,2.4-1,2.4-2.7c0.1-1.6-1.3-3-2.8-2.8c-1.7,0.1-2.6,1.1-2.8,2.7C12.9,84.6,14.3,85.9,16.1,85.9z"/>
<path class="st0" d="M83.8,91.5c-4.7,0-8.4-3.8-8.3-8.5c0.1-4.7,3.9-8.4,8.5-8.3c4.7,0.1,8.4,3.9,8.4,8.5
	C92.3,87.9,88.5,91.6,83.8,91.5z M83.6,85.9c1.8,0,3.2-1.3,3.1-2.8c-0.2-1.6-1.1-2.6-2.8-2.7c-1.5-0.1-2.9,1.3-2.8,2.9
	C81.2,84.9,82.2,85.7,83.6,85.9z"/>
<path class="st0" d="M58.1,83.2c0,4.7-3.7,8.4-8.4,8.4c-4.7,0-8.4-3.7-8.4-8.4c0-4.7,3.8-8.4,8.4-8.4C54.4,74.7,58.1,78.5,58.1,83.2
	z M50,85.9c1.4-0.2,2.4-1.1,2.4-2.7c0.1-1.5-1.3-2.9-2.8-2.8c-1.6,0.1-2.6,1.1-2.7,2.8C46.8,84.7,48.2,85.9,50,85.9z"/>
</svg>
