<?xml version="1.0" encoding="utf-8"?>
<!-- Generator: Adobe Illustrator 16.0.0, SVG Export Plug-In . SVG Version: 6.00 Build 0)  -->
<!DOCTYPE svg PUBLIC "-//W3C//DTD SVG 1.1//EN" "http://www.w3.org/Graphics/SVG/1.1/DTD/svg11.dtd">
<svg version="1.1" id="Layer_1" xmlns="http://www.w3.org/2000/svg" xmlns:xlink="http://www.w3.org/1999/xlink" x="0px" y="0px"
	 width="864px" height="1296px" viewBox="0 0 864 1296" enable-background="new 0 0 864 1296" xml:space="preserve">
<path fill-rule="evenodd" clip-rule="evenodd" fill="#FEDD90" d="M172.376,885.458c-0.01,7.883,0.093,15.769-0.056,23.647
	c-0.246,13.077-10.473,23.525-23.519,23.587c-32.053,0.149-64.106,0.063-96.161,0.041c-12.124-0.009-18.83-7.564-23.89-17.347
	c0-67.329,0-134.656,0-201.986c6.338-14.249,17.723-17.868,32.557-17.58c37.024,0.717,74.071,0.312,111.109,0.355
	c2.881,2.981,2.461,6.802,2.466,10.414c0.071,56.139,0.066,112.276,0.016,168.415C174.894,878.664,175.033,882.415,172.376,885.458z
	"/>
<path fill-rule="evenodd" clip-rule="evenodd" fill="#D66E19" d="M836.702,716.555c-14.182,21.787-31.261,41.334-47.488,61.539
	c-4.25-0.393-5.027-4.153-6.541-7.006c-9.086-17.118-23.127-25.742-42.612-25.517c-12.579,0.146-25.159,0.093-37.738-0.015
	c-3.322-0.028-6.908,0.603-9.595-2.289c13.824-16.017,25.646-34.022,43.779-45.824c23.678-15.414,49.33-19.281,76.724-12.188
	c10.708,2.773,18.84,8.438,23.472,18.676C836.702,708.14,836.702,712.347,836.702,716.555z"/>
<path fill-rule="evenodd" clip-rule="evenodd" fill="#FEA464" d="M172.376,885.458c0.013-63.092,0.027-126.188,0.039-189.282
	c44.148-22.766,90.367-38.893,139.836-45.662c52.84-7.229,101.031,3.574,145.232,33.535c21.964,14.887,45.271,27.548,69.979,37.452
	c1.736,1.842,2.302,4.144,2.298,6.543c-0.044,29.958,0.856,59.92-0.438,89.856c-0.218,0.893-0.61,1.725-1.143,2.475
	c-2.691,2.043-5.534,0.728-8.283,0.214c-8.249-1.548-16.396-3.539-24.442-5.949c-3.516-1.053-7.053-2.058-10.702-2.538
	c-13.056-1.714-23.246,4.801-25.654,16.352c-2.332,11.186,4.723,21.869,17.013,25.405c14.611,4.203,29.321,8.035,44.162,11.356
	c2.54,0.569,5.209,0.797,7.429,2.431c0.633,0.707,1.085,1.5,1.394,2.392c1.424,6.758,0.728,13.59,0.752,20.384
	c0.095,24.895,0.144,49.79-0.045,74.685c-0.044,5.62,1.132,10.256,5.834,13.622c-11.941,2.365-23.978,1.691-35.939,0.633
	c-50.296-4.448-95.984-23.576-140.484-45.645c-38.956-19.321-78.748-35.708-121.929-42.644
	C215.792,887.622,194.268,884.367,172.376,885.458z"/>
<path fill-rule="evenodd" clip-rule="evenodd" fill="#80DAFE" d="M527.514,648.461c-38.476,0.35-72.736-11.932-102.752-35.563
	c-32.869-25.877-53.129-59.773-60.381-101.01c-8.565-48.703,2.861-92.787,33.202-131.587
	c26.144-33.432,60.887-53.251,102.542-60.802c8.987-1.63,18.14-3.028,27.39-1.948c2.801,3.016,2.396,6.82,2.394,10.437
	c-0.041,53.719,0.268,107.437-0.132,161.146c0.189,2.001-0.349,3.6-2.441,4.302c-3.635,0.588-5.931-1.776-8.03-4.052
	c-6.771-7.349-14.825-13.272-22.046-20.125c-6.297-5.974-13.75-9.854-22.876-6.995c-17.042,5.34-21.456,25.277-8.152,37.653
	c15.525,14.442,31.199,28.733,46.28,43.638c4.264,4.217,9.896,5.771,14.701,8.911c1.016,1.002,1.617,2.218,2,3.576
	c1.578,21.79,0.335,43.601,0.702,65.396c0.101,6.041,0.097,12.088-0.036,18.13C529.807,642.698,529.952,645.938,527.514,648.461z"/>
<path fill-rule="evenodd" clip-rule="evenodd" fill="#4AB7F6" d="M527.514,648.461c-0.003-31.435-0.005-62.871-0.007-94.309
	c0.169-0.2,0.318-0.558,0.51-0.581c15.367-1.838,22.85-13.018,30.297-24.774c13.343-21.058,28.182-41.131,41.759-62.045
	c1.574-2.421,3.254-4.774,4.657-7.3c6.26-11.261,3.834-23.606-5.854-29.87c-10.958-7.083-23.179-4.706-30.907,6.523
	c-10.862,15.782-21.339,31.828-31.986,47.757c-1.847,2.765-3.21,6.156-7.016,7.02c-2.278-1.771-1.528-4.309-1.528-6.567
	c-0.002-55.588,0.041-111.177,0.076-166.764c63.061-2.914,127.849,40.211,153.067,101.885
	c40.604,99.302-20.616,209.477-126.429,227.356C545.377,648.274,536.491,649.49,527.514,648.461z"/>
<path fill-rule="evenodd" clip-rule="evenodd" fill="#FE8845" d="M527.415,820.72c0.016-33.07,0.03-66.146,0.047-99.219
	c20.326,6.562,40.781,12.456,61.968,15.819c34.263,5.438,68.726,6.412,103.298,5.949c16.457,0.037,32.911,0.101,49.367,0.107
	c19.381,0.006,33.096,9.169,42.17,25.928c1.602,2.955,3.297,5.858,4.949,8.789c-0.683,7.264,1.089,14.565-0.463,21.83
	c-5.267,24.668-27.372,39.721-49.521,38.249c-3.82,2.088-7.968,2.347-12.213,2.341c-27.282-0.033-54.595,0.789-81.842-0.218
	c-37.021-1.368-73.579-7.055-109.732-15.172C532.396,824.439,529.228,823.76,527.415,820.72z"/>
<path fill-rule="evenodd" clip-rule="evenodd" fill="#FE8845" d="M535.635,978.728c-7.067,0.816-8.444-2.632-8.383-9.182
	c0.316-33.811,0.117-67.625,0.099-101.44c3.331-1.767,6.704-0.655,9.998,0.013c29.097,5.908,58.393,10.622,87.996,12.817
	c19.865,1.473,39.785,2.79,59.755,2.143c3.831-0.123,7.97-0.771,11.2,2.361c-35.827,39.333-76.154,72.096-128.31,87.417
	C557.444,975.953,546.724,978.452,535.635,978.728z"/>
<path fill-rule="evenodd" clip-rule="evenodd" fill="#D66E19" d="M696.3,885.439c-22.221,0.111-44.454,0.257-66.61-1.658
	c-34.448-2.976-68.676-7.511-102.339-15.676h-0.019c-1.826-2.096-2.313-4.648-2.358-7.299c-0.182-10.963-0.21-21.931,0.021-32.895
	c0.055-2.595,0.242-5.263,2.427-7.196l-0.006,0.004c27.138,6.412,54.576,10.943,82.269,14.303
	c43.114,5.232,86.371,2.002,129.547,3.15C725.71,854.646,711.336,870.346,696.3,885.439z"/>
<path fill-rule="evenodd" clip-rule="evenodd" fill="#FE8845" d="M527.421,820.716c-0.029,15.797-0.058,31.592-0.089,47.39
	c-16.737-1.606-32.545-7.254-48.696-11.37c-4.203-1.068-8.662-1.593-12.31-4.729c-9.585-8.242-12.429-18.659-7.62-29.523
	c4.217-9.527,15.277-15.138,27.076-12.533C499.773,813.034,513.552,817.085,527.421,820.716z"/>
<path fill-rule="evenodd" clip-rule="evenodd" fill="#B4EEFE" d="M528.966,490.882c12.369-18.543,24.695-37.114,37.121-55.619
	c8.221-12.241,22.131-15.211,34.177-7.443c10.265,6.618,13.604,21.378,6.188,32.674c-18.57,28.283-37.549,56.302-56.729,84.175
	c-5.119,7.44-13.322,9.79-22.215,9.483c-0.6-0.498-1.2-0.998-1.8-1.497c-1.126-20.06-1.408-40.116,0.117-60.17
	C527.119,492.437,528.381,492.321,528.966,490.882z"/>
<path fill-rule="evenodd" clip-rule="evenodd" fill="#E2FAFE" d="M525.824,492.485c1.783,2.809,1.599,5.95,1.595,9.083
	c-0.024,14.337,0.037,28.674-0.052,43.011c-0.017,2.748,0.964,5.814-1.66,8.075c-5.199-0.505-9.424-2.966-13.16-6.475
	c-16.078-15.092-32.24-30.094-48.243-45.265c-9.954-9.437-10.564-24.145-1.695-34.112c8.733-9.808,23.838-10.016,34.707-0.3
	C506.899,475.072,516.326,483.817,525.824,492.485z"/>
</svg>
