<?xml version="1.0" encoding="utf-8"?>
<!-- Generator: Adobe Illustrator 16.0.0, SVG Export Plug-In . SVG Version: 6.00 Build 0)  -->
<!DOCTYPE svg PUBLIC "-//W3C//DTD SVG 1.1//EN" "http://www.w3.org/Graphics/SVG/1.1/DTD/svg11.dtd">
<svg version="1.1" id="Layer_1" xmlns="http://www.w3.org/2000/svg" xmlns:xlink="http://www.w3.org/1999/xlink" x="0px" y="0px"
	 width="864px" height="1296px" viewBox="0 0 864 1296" enable-background="new 0 0 864 1296" xml:space="preserve">
<path d="M431.564,323.695c-134.499,2.945-203.298,95.3-203.298,182.659c0,34.834,13.481,67.636,20.201,99.015
	c6.714,31.378,7.983,58.417-9.879,86.057h-0.006c-1.391,2.221-2.356,4.676-2.851,7.248c-15.358,12.358-28.795,28.672-39.74,47.644
	c-23.949,41.527-37.978,96.673-37.978,156.752v31.834V934.9c0,5.591,2.22,10.952,6.169,14.902c3.955,3.955,9.316,6.174,14.903,6.174
	h505.824c5.587,0,10.949-2.219,14.903-6.174c3.95-3.95,6.17-9.312,6.17-14.902v-31.834c0-60.081-14.029-115.226-37.978-156.753
	c-10.908-18.91-24.22-35.294-39.519-47.644v0.005c-0.563-2.588-1.605-5.042-3.071-7.248c-17.862-27.638-16.599-54.679-9.88-86.058
	c6.714-31.378,20.195-64.176,20.195-99.014c0-87.357-68.798-179.711-203.296-182.659c-0.294-0.005-0.588-0.005-0.883,0H431.564z"/>
<path fill="#6D422B" d="M431.564,365.85c0.313,0.005,0.562-0.005,0.877,0c115.749,2.911,161.144,74.222,161.144,140.506
	c0,22.446-11.649,54.177-19.317,90.013c-5.189,24.248-7.792,51.593-1.098,79.036c-2.391-0.191-4.807-0.437-7.243-0.437h-22.175
	h-0.221c-16.676-0.294-27.222-14.015-27.222-21.077h-0.005c0.034-0.656,0.034-1.318,0-1.975c1.01-1.48,2.112-2.867,3.073-4.391
	c20.386-32.245,32.055-74.63,32.055-121.185c0-12.099-0.563-21.514-1.977-29.638c-1.412-8.125-3.131-15.916-10.756-23.272
	c-7.63-7.355-20.651-8.414-27.664-6.586c-7.012,1.828-11.457,4.513-15.81,7.027c-8.698,5.023-16.426,9.649-23.493,11.418
	c-7.062,1.769-12.56,2.19-22.61-4.17c-30.402-19.234-58.119-34.103-87.597-30.516c-14.741,1.794-29.814,10.786-37.977,24.591
	c-8.164,13.805-10.978,30.627-10.978,51.151c0,46.559,11.668,88.944,32.056,121.184c0.96,1.525,2.062,2.911,3.072,4.392v-0.005
	c-0.034,0.656-0.034,1.318,0,1.975c0,7.062-10.545,20.783-27.222,21.077h-0.221h-22.174c-2.436,0-4.856,0.245-7.244,0.437
	c6.695-27.437,4.092-54.788-1.097-79.036c-7.669-35.836-19.317-67.567-19.317-90.013c0-66.279,45.393-137.595,161.144-140.506
	H431.564z"/>
<path fill="#EABF86" d="M366.578,492.307c8.125-0.99,32.48,7.003,59.933,24.37c18.999,12.021,39.586,13.599,55.325,9.659
	c11.448-2.862,19.824-7.567,26.788-11.634c0.25,3.812,0.656,6.037,0.656,11.634c0,39.355-10.256,74.732-25.468,98.794
	c-15.211,24.056-33.66,35.783-51.813,35.783c-18.151,0-36.602-11.728-51.812-35.783c-15.211-24.057-25.468-59.439-25.468-98.794
	c0-16.079,2.944-25.713,5.267-29.639c2.323-3.924,2.524-3.895,6.586-4.39H366.578z"/>
<path fill="#EAD65C" d="M380.193,685.943c15.298,10.756,32.832,17.122,51.812,17.122c18.979,0,36.515-6.366,51.813-17.122
	c12.074,18.581,34.256,30.922,59.497,31.171h0.215h22.396c22.165,0,46.029,16.652,65.421,50.274
	c19.391,33.622,32.49,82.328,32.49,135.678v10.756H200.165v-10.756c0-53.348,13.098-102.053,32.489-135.678
	c19.392-33.623,43.256-50.274,65.421-50.274h22.405h0.216C345.938,716.859,368.112,704.52,380.193,685.943L380.193,685.943z"/>
</svg>
