<?xml version="1.0" encoding="utf-8"?>
<!-- Generator: Adobe Illustrator 16.0.0, SVG Export Plug-In . SVG Version: 6.00 Build 0)  -->
<!DOCTYPE svg PUBLIC "-//W3C//DTD SVG 1.0//EN" "http://www.w3.org/TR/2001/REC-SVG-20010904/DTD/svg10.dtd">
<svg version="1.0" id="Layer_1" xmlns="http://www.w3.org/2000/svg" xmlns:xlink="http://www.w3.org/1999/xlink" x="0px" y="0px"
	 width="864px" height="1296px" viewBox="0 0 864 1296" enable-background="new 0 0 864 1296" xml:space="preserve">
<path fill="#FFFFFF" d="M376.821,325.516c10.968,0,21.937,0,32.905,0c1.547,0.369,3.082,0.826,4.645,1.095
	c13.775,2.367,27.801,3.738,41.293,7.192c156.04,39.957,234.36,216.738,159.141,359.118c-6.888,13.034-15.288,25.271-23.732,39.1
	c1.309,0.988,3.459,2.251,5.17,3.959c50.727,50.652,101.365,101.39,152.146,151.988c7.064,7.037,13.892,14.068,17.2,23.742
	c0,4.062,0,8.124,0,12.187c-3.799,13.264-12.39,21.735-25.593,25.593c-3.655,0-7.312,0-10.968,0
	c-9.355-2.515-16.227-8.554-22.912-15.264c-51.578-51.791-103.311-103.431-155.002-155.11c-1.404-1.403-2.895-2.722-4.151-3.897
	c-0.641,0.127-0.877,0.108-1.031,0.214c-0.844,0.561-1.679,1.133-2.494,1.729c-59.516,43.368-125.468,58.844-198.032,45.754
	c-96.998-17.497-177.66-95.764-197.718-192.145c-2.554-12.271-4.074-24.755-6.073-37.14c0-11.375,0-22.75,0-34.124
	c1.58-10.364,2.906-20.772,4.778-31.083c17.479-96.237,96.288-177.055,192.09-196.804
	C351.141,329.009,364.034,327.521,376.821,325.516z M203.813,576.21c-0.308,103.687,84.351,188.622,188.475,189.093
	c103.766,0.469,188.821-84.223,189.14-188.334c0.319-103.906-84.295-188.833-188.386-189.076
	C289.217,387.65,204.12,472.336,203.813,576.21z"/>
</svg>
