<?xml version="1.0" encoding="utf-8"?>
<!-- Generator: Adobe Illustrator 16.0.0, SVG Export Plug-In . SVG Version: 6.00 Build 0)  -->
<!DOCTYPE svg PUBLIC "-//W3C//DTD SVG 1.0//EN" "http://www.w3.org/TR/2001/REC-SVG-20010904/DTD/svg10.dtd">
<svg version="1.0" id="Layer_1" xmlns="http://www.w3.org/2000/svg" xmlns:xlink="http://www.w3.org/1999/xlink" x="0px" y="0px"
	 width="100px" height="100px" viewBox="0 0 100 100" enable-background="new 0 0 100 100" xml:space="preserve">
<g>
	<path fill="#FFFFFF" d="M81.5,29.3c-2.4,0-4.3,1.9-4.3,4.3V48c1,0.5,1.8,1.3,2.3,2.3c0.4,0.9,0.6,1.8,0.5,2.8
		c-0.1,0.5-0.2,1-0.4,1.4c-0.399,1-1.199,2-2.3,2.5l-10.8,5.4C66.3,62.5,66,62.6,65.8,62.6c-0.6,0-1.2-0.3-1.5-0.899
		c-0.399-0.8-0.1-1.8,0.7-2.2l6.6-3.3l4.2-2.101C76.6,53.7,77,52.7,76.5,51.9c-0.4-0.801-1.4-1.2-2.2-0.7L70.2,53L58,59.1
		c-2.4,1.2-3.6,3.801-3.2,6.301c-0.1,0.3-0.1,0.699-0.1,1V81c0,3.3,2.7,5.9,5.899,5.9c3.301,0,5.9-2.7,5.9-5.9V68l15.8-7.9
		c1.4-0.699,2.4-1.899,2.9-3.199c0.3-0.601,0.5-1.301,0.5-2.101V33.6C85.8,31.2,83.9,29.3,81.5,29.3z"/>
	<path fill="#FFFFFF" d="M42,59.1L29.8,53l-4.2-2.1c-0.8-0.4-1.8-0.101-2.2,0.699C23,52.4,23.3,53.4,24.1,53.8l4.2,2.101l6.6,3.3
		c0.8,0.399,1.1,1.399,0.7,2.2C35.3,62,34.7,62.3,34.1,62.3c-0.2,0-0.5-0.1-0.7-0.2L22.6,56.7c-1.1-0.601-1.9-1.5-2.3-2.5
		c-0.2-0.4-0.3-0.9-0.4-1.4C19.8,51.9,20,50.9,20.4,50c0.5-1,1.3-1.8,2.3-2.3V33.6c0-2.4-1.9-4.3-4.3-4.3s-4.3,1.9-4.3,4.3V55
		c0,0.8,0.2,1.5,0.5,2.1c0.5,1.4,1.5,2.5,2.9,3.2l15.8,7.9v13c0,3.3,2.7,5.899,5.9,5.899c3.3,0,5.9-2.699,5.9-5.899V66.4h0.2
		c0-0.301,0-0.7-0.1-1C45.6,62.9,44.4,60.3,42,59.1z"/>
	<path fill="#FFFFFF" d="M65.05,29.899l-1.6-1.6l-15.3,15.3l-7.6-7.6l-5.8,5.8l8.444,8.444c0.019-0.015,0.037-0.028,0.056-0.044l5,5
		l21-21.101L65.05,29.899z"/>
</g>
</svg>
