<?xml version="1.0" encoding="utf-8"?>
<!-- Generator: Adobe Illustrator 16.0.0, SVG Export Plug-In . SVG Version: 6.00 Build 0)  -->
<!DOCTYPE svg PUBLIC "-//W3C//DTD SVG 1.0//EN" "http://www.w3.org/TR/2001/REC-SVG-20010904/DTD/svg10.dtd">
<svg version="1.0" id="Layer_1" xmlns="http://www.w3.org/2000/svg" xmlns:xlink="http://www.w3.org/1999/xlink" x="0px" y="0px"
	 width="100px" height="100px" viewBox="0 0 100 100" enable-background="new 0 0 100 100" xml:space="preserve">
<g>
	<circle fill="#FFFFFF" cx="68.501" cy="24.35" r="10.6"/>
	<path fill="#FFFFFF" d="M73.401,37.149h-9.9c-2,0-3.6,1.6-3.6,3.6v4.7l5.1-5.1c1-1.1,2.5-1.7,4-1.7c1.601,0,3,0.6,4.101,1.7
		c2.2,2.2,2.2,5.9,0,8.1l-0.7,0.7l-9.5,9.5h-2.3c0.6,0.9,1.7,1.5,2.899,1.5h9.9c2,0,3.6-1.6,3.6-3.6v-15.8
		C77.001,38.75,75.401,37.149,73.401,37.149z"/>
	<path fill="#FFFFFF" d="M63.802,54.449l7.699-7.7c1.301-1.3,1.301-3.4,0-4.7c-1.3-1.3-3.399-1.3-4.699,0l-6.9,6.8l-0.7,0.8h-10.3
		h-2.2h-10.3l-0.7-0.8l-6.9-6.8c-1.3-1.3-3.399-1.3-4.699,0c-1.301,1.3-1.301,3.4,0,4.7l7.699,7.7l1.9,1.801h13h2.2h13
		L63.802,54.449z"/>
	<path fill="#FFFFFF" d="M63.302,80.75c0,2.8,2.3,5.1,5.1,5.1s5.1-2.3,5.1-5.1v-17.7H63.302V80.75z"/>
	<circle fill="#FFFFFF" cx="27.102" cy="24.35" r="10.6"/>
	<path fill="#FFFFFF" d="M23.201,49.149l-0.7-0.7c-2.2-2.2-2.2-5.9,0-8.1c1.101-1.1,2.5-1.7,4.101-1.7c1.5,0,3,0.6,4,1.7l5.1,5.1
		v-4.7c0-2-1.6-3.6-3.6-3.6h-9.9c-2,0-3.6,1.6-3.6,3.6v15.8c0,2,1.6,3.6,3.6,3.6h9.9c1.199,0,2.3-0.6,2.899-1.5h-2.3L23.201,49.149z
		"/>
	<path fill="#FFFFFF" d="M22.102,80.75c0,2.8,2.3,5.1,5.1,5.1s5.1-2.3,5.1-5.1v-17.7H22.102V80.75z"/>
</g>
</svg>
