<?xml version="1.0" encoding="utf-8"?>
<!-- Generator: Adobe Illustrator 16.0.0, SVG Export Plug-In . SVG Version: 6.00 Build 0)  -->
<!DOCTYPE svg PUBLIC "-//W3C//DTD SVG 1.0//EN" "http://www.w3.org/TR/2001/REC-SVG-20010904/DTD/svg10.dtd">
<svg version="1.0" id="Layer_1" xmlns="http://www.w3.org/2000/svg" xmlns:xlink="http://www.w3.org/1999/xlink" x="0px" y="0px"
	 width="100px" height="100px" viewBox="0 0 100 100" enable-background="new 0 0 100 100" xml:space="preserve">
<g>
	<path fill="#FFFFFF" d="M83.3,13H16.7c-4.9,0-8.9,4-8.9,8.9v37.2c0,4.9,4,8.9,8.9,8.9h66.5c4.899,0,8.899-4,8.899-8.9V21.9
		C92.2,17,88.2,13,83.3,13z M86.9,59.1c0,2-1.601,3.7-3.7,3.7H16.7c-2,0-3.7-1.6-3.7-3.7V21.9c0-2,1.6-3.7,3.7-3.7h66.5
		c2,0,3.7,1.6,3.7,3.7V59.1z"/>
	<polygon fill="#FFFFFF" points="55.9,73 44.1,73 44.1,79 34.6,82 34.6,87 65.4,87 65.4,82 55.9,79 	"/>
</g>
</svg>
