<?xml version="1.0" encoding="utf-8"?>
<!-- Generator: Adobe Illustrator 16.0.0, SVG Export Plug-In . SVG Version: 6.00 Build 0)  -->
<!DOCTYPE svg PUBLIC "-//W3C//DTD SVG 1.0//EN" "http://www.w3.org/TR/2001/REC-SVG-20010904/DTD/svg10.dtd">
<svg version="1.0" id="Layer_1" xmlns="http://www.w3.org/2000/svg" xmlns:xlink="http://www.w3.org/1999/xlink" x="0px" y="0px"
	 width="100px" height="100px" viewBox="0 0 100 100" enable-background="new 0 0 100 100" xml:space="preserve">
<g>
	<g>
		<g>
			<path fill="#FFFFFF" d="M45.45,53.6c-3.301-5.1-5.2-12.2-4.601-20.7c-3.899,2.7-7.6,6-11.1,9.7l0,0c-3.5,3.6-6.7,7.8-9.6,12.4
				c2.1-0.1,4.2-0.2,6.3-0.3c1.5,15.8,10.1,27.3,21.5,32.3c-8.2-8.3-11.301-20.4-9.2-33.1C40.95,53.8,43.25,53.7,45.45,53.6z"/>
		</g>
		<g>
			<path fill="#FFFFFF" d="M54.649,46.4c3.301,5.1,5.301,12.2,4.7,20.7c3.8-2.699,7.601-6,11-9.699l0,0c3.5-3.7,6.7-7.9,9.5-12.5
				c-2.1,0.1-4.2,0.2-6.3,0.4c-1.4-15.9-10.1-27.3-21.5-32.3c8.2,8.3,11.4,20.4,9.3,33C59.149,46.1,56.85,46.3,54.649,46.4z"/>
		</g>
	</g>
</g>
</svg>
