<?xml version="1.0" encoding="utf-8"?>
<!-- Generator: Adobe Illustrator 16.0.0, SVG Export Plug-In . SVG Version: 6.00 Build 0)  -->
<!DOCTYPE svg PUBLIC "-//W3C//DTD SVG 1.1//EN" "http://www.w3.org/Graphics/SVG/1.1/DTD/svg11.dtd">
<svg version="1.1" id="Layer_1" xmlns="http://www.w3.org/2000/svg" xmlns:xlink="http://www.w3.org/1999/xlink" x="0px" y="0px"
	 width="864px" height="1296px" viewBox="0 0 864 1296" enable-background="new 0 0 864 1296" xml:space="preserve">
<path fill-rule="evenodd" clip-rule="evenodd" fill="#9B9B9B" d="M121.841,426.179c198.381,0,396.763,0,595.145,0
	c0-17.948,4.634-35.131-15.393-43.272c-36.288-14.747-72.527-29.615-108.734-44.562c-30.172-12.456-60.322-24.967-90.459-37.509
	c-23.485-9.773-68.9-40.822-94.62-30.082c-67.502,28.181-135.095,56.143-202.691,84.097
	C171.991,368.539,107.335,377.022,121.841,426.179C320.416,426.179,121.419,424.749,121.841,426.179z"/>
<rect x="81.926" y="784.176" fill-rule="evenodd" clip-rule="evenodd" fill="#9B9B9B" width="674.002" height="77.508"/>
<path fill-rule="evenodd" clip-rule="evenodd" fill="#C9C9C9" d="M81.926,457.59v56.174h38.479v230.645h76.566
	c-0.013-0.518-0.039-1.032-0.039-1.554v-136.45c0-33.973,27.541-61.514,61.514-61.514s61.514,27.541,61.514,61.514v136.45
	c0,0.521-0.026,1.036-0.039,1.554h37.204c-0.013-0.518-0.039-1.032-0.039-1.554v-136.45c0-33.973,27.541-61.514,61.514-61.514
	c33.974,0,61.515,27.541,61.515,61.514v136.45c0,0.521-0.026,1.036-0.039,1.554h36.268c-0.013-0.518-0.039-1.032-0.039-1.554
	v-136.45c0-33.973,27.541-61.514,61.514-61.514c33.974,0,61.515,27.541,61.515,61.514v136.45c0,0.521-0.026,1.036-0.039,1.554
	h78.155V513.765h38.479V457.59H81.926z"/>
<path fill-rule="evenodd" clip-rule="evenodd" fill="#9B9B9B" d="M291.054,744.409V609.951c0-19.149-15.523-34.672-34.672-34.672
	s-34.672,15.523-34.672,34.672v134.458H291.054z"/>
<path fill-rule="evenodd" clip-rule="evenodd" fill="#9B9B9B" d="M453.6,744.409V609.951c0-19.149-15.523-34.672-34.672-34.672
	s-34.672,15.523-34.672,34.672v134.458H453.6z"/>
<path fill-rule="evenodd" clip-rule="evenodd" fill="#9B9B9B" d="M611.301,744.409V609.951c0-19.149-15.523-34.672-34.673-34.672
	s-34.672,15.523-34.672,34.672v134.458H611.301z"/>
</svg>
