<?xml version="1.0" encoding="utf-8"?>
<!-- Generator: Adobe Illustrator 16.0.0, SVG Export Plug-In . SVG Version: 6.00 Build 0)  -->
<!DOCTYPE svg PUBLIC "-//W3C//DTD SVG 1.1//EN" "http://www.w3.org/Graphics/SVG/1.1/DTD/svg11.dtd">
<svg version="1.1" id="Layer_1" xmlns="http://www.w3.org/2000/svg" xmlns:xlink="http://www.w3.org/1999/xlink" x="0px" y="0px"
	 width="864px" height="1296px" viewBox="0 0 864 1296" enable-background="new 0 0 864 1296" xml:space="preserve">
<path fill-rule="evenodd" clip-rule="evenodd" fill="#F1D35B" d="M824.239,391.949c-5.705,15.784-17.157,21.3-33.577,21.042
	c-37.551-0.593-75.12-0.122-112.682-0.082c-3.559,2.12-7.473,2.416-11.5,2.412c-23.088-0.027-46.177,0.019-69.265-0.041
	c-3.69-0.01-7.525,0.34-10.622-2.408c-16.923-0.026-33.846-0.012-50.767-0.095c-17.348-0.084-28.347-11.106-28.362-28.593
	c-0.051-58.483,0.29-116.967-0.219-175.446c-0.144-16.399,5.324-27.798,21.036-33.525c91.677,0,183.354,0,275.03,0
	c12.167,1.785,19.142,8.759,20.927,20.926C824.239,261.409,824.239,326.679,824.239,391.949z"/>
<path fill-rule="evenodd" clip-rule="evenodd" fill="#7ECE9C" d="M58.937,897.169c3.056-4.972,6.551-9.33,13.125-9.373
	c4.056-2.634,8.638-1.981,13.07-1.993c66.175-0.161,132.35,0.094,198.524,0.265c3.719,0.012,7.469,0.364,11.143-0.561
	c0.925-0.292,1.869-0.498,2.821-0.665c17.174-0.764,34.353-0.809,51.533-0.012c18.874,2.009,37.801,0.602,56.701,0.884
	c4.369,0.063,6.283-2.204,6.346-6.443c0.042-2.737,0.089-5.476,0.089-8.212c0.009-40.828-0.081-81.654,0.125-122.48
	c0.02-3.986-2.034-9.26,3.906-11.473c3.025,3.642,2.211,8.039,2.218,12.188c0.072,41.082,0.025,82.166,0.052,123.25
	c0.008,11.523,0.236,11.721,11.616,11.754c8.216,0.022,16.432,0.06,24.649-0.012c9.068-0.08,9.699-0.643,9.715-9.832
	c0.061-40.836-0.018-81.672,0.078-122.506c0.01-4.882-1.101-10.019,1.997-14.517c3.904-0.431,3.51,2.787,3.895,4.952
	c0.654,3.679,0.339,7.449,0.339,11.183c0.012,40.094-0.01,80.19,0.018,120.284c0.008,11.825,0.153,12.104,12.198,11.912
	c16.918-0.267,33.864,1.03,50.75-0.9c17.105-0.801,34.216-0.748,51.333-0.084c0.966,0.138,1.907,0.362,2.842,0.625
	c3.657,1.047,7.406,0.677,11.118,0.667c66.311-0.173,132.62-0.434,198.93-0.271c4.426,0.012,9-0.633,13.045,1.995
	c6.572,0.049,10.065,4.409,13.128,9.375c0,11.459,0,22.918,0,34.377c-1.131,4.849-4.121,7.839-8.968,8.97
	c-249.122,0-498.246,0-747.366,0c-4.847-1.131-7.837-4.121-8.969-8.97C58.937,920.087,58.937,908.628,58.937,897.169z"/>
<path fill-rule="evenodd" clip-rule="evenodd" fill="#FEFDFA" d="M824.239,196.139c-3.57-10.381-10.538-17.364-20.927-20.926
	c6.976,0,16.674-2.722,20.161,0.766C826.962,179.466,824.239,189.164,824.239,196.139z"/>
<path fill-rule="evenodd" clip-rule="evenodd" fill="#F5FBF7" d="M58.937,931.546c2.534,3.447,5.502,6.456,8.969,8.97
	C60.238,942.203,57.248,939.213,58.937,931.546z"/>
<path fill-rule="evenodd" clip-rule="evenodd" fill="#F5FBF7" d="M815.271,940.516c3.453-2.524,6.449-5.509,8.968-8.97
	C825.927,939.213,822.937,942.203,815.271,940.516z"/>
<path fill-rule="evenodd" clip-rule="evenodd" fill="#C9B090" d="M296.374,886.49c-1.249,2.244-3.433,1.619-5.319,1.619
	c-72.258,0.002-144.517-0.023-216.775-0.059c-0.739,0-1.477-0.163-2.217-0.255c0.078-39.325,0.179-78.648,0.228-117.974
	c0.037-30.367-0.029-60.732,0.029-91.101c0.021-10.603,4.312-14.928,14.973-14.939c49.035-0.061,98.071-0.151,147.104,0.113
	c6.687,0.037,9.241-1.491,8.852-8.598c-0.359-6.587-1.386-13.384,0.826-19.938c4.206,4.964,2.256,10.926,2.489,16.462
	c0.39,9.278,0.56,9.754,9.708,9.791c18.396,0.073,36.79-0.002,55.185,0.043c3.706,0.01,7.481-0.374,11.016,1.228
	c2.892,4.83-1.902,5.842-4.179,7.494c-14.494,10.523-29.268,20.654-43.921,30.957c-9.563,6.724-19.138,13.436-28.737,20.111
	c-8.645,6.012-12.8,13.857-12.742,24.597c0.231,42.792,0.079,85.586,0.11,128.38c0.006,9.732,0.392,10.087,10.076,10.116
	c14.679,0.042,29.358-0.033,44.037,0.044C290.294,884.598,293.65,884.111,296.374,886.49z"/>
<path fill-rule="evenodd" clip-rule="evenodd" fill="#C9B090" d="M811.111,887.794c-9.429,0.109-18.857,0.31-28.286,0.313
	c-62.576,0.033-125.15,0.043-187.728-0.045c-2.766-0.004-6.015,1.418-8.298-1.574c2.975-2.524,6.597-1.887,10.015-1.904
	c14.941-0.087,29.885,0.033,44.826-0.065c7.76-0.053,8.503-0.758,8.513-8.664c0.061-43.831-0.012-87.661,0.064-131.492
	c0.019-10.249-4.799-17.381-12.863-23.025c-23.257-16.278-46.432-32.672-69.616-49.05c-2.93-2.069-8.534-3.253-5.789-9.225
	c3.224-1.709,6.736-1.399,10.178-1.409c16.575-0.047,33.147-0.016,49.72-0.021c16.009-0.006,14.523,0.598,14.739-14.334
	c0.059-4.082-0.973-8.516,2.507-11.928c2.253,6.803,1.073,13.826,0.849,20.686c-0.21,6.395,2.04,7.853,8.096,7.823
	c48.287-0.226,96.574-0.133,144.861-0.121c14.622,0.004,17.976,3.364,17.978,17.957c0.004,65.461-0.002,130.922,0.012,196.383
	C810.888,881.328,811.034,884.563,811.111,887.794z"/>
<path fill-rule="evenodd" clip-rule="evenodd" fill="#C9B090" d="M264.996,611.483c8.503-2.713,17.233-0.808,25.85-1.148
	c3.917-0.157,5.539-0.928,5.864-5.347c4.702-63.857,37.217-107.412,96.498-131.125c9.712-3.883,19.945-5.994,30.343-7.183
	c1.715-0.197,3.523-0.014,4.788-1.556c8.831-2.888,17.665-2.883,26.498-0.003c8.635,1.944,17.337,3.629,25.893,5.876
	c54.843,14.402,98.059,64.383,104.521,120.669c0.282,2.461,0.938,4.886,1.152,7.351c0.971,11.208,0.942,11.001,12.652,11.293
	c6.37,0.16,12.896-1.468,19.122,1.173c-3.445,3.482-7.936,2.712-12.012,2.488c-39.555-2.167-79.146-1.036-118.698-1.551
	c-4.094,0.779-7.067-1.549-10.11-3.704c-8.488-6.007-16.913-12.113-25.563-17.887c-8.651-5.773-12.228-5.785-20.896,0.349
	c-8.287,5.865-16.657,11.613-24.906,17.532c-2.998,2.151-6.057,4.452-10.183,3.706c-15.377,0.315-30.744,0.382-46.096,0.07
	c-24.534-0.497-49.006,1.125-73.511,1.508C272.35,614.059,268.167,614.801,264.996,611.483z"/>
<path fill-rule="evenodd" clip-rule="evenodd" fill="#A38E78" d="M264.996,611.483c41.553-1.588,83.125-1.265,124.695-1.212
	c2.841,0.002,5.988-1.113,8.5,1.326c-0.537,3.359-3.263,4.864-5.687,6.546c-20.05,13.91-40.036,27.909-60.012,41.926
	c-2.654,1.861-5.027,5.086-9.111,3.833c-24.017,0.014-48.036-0.139-72.049,0.165c-5.634,0.07-7.349-1.682-7.066-7.19
	c0.368-7.149-0.089-14.342-0.191-21.517C245.101,622.524,252.305,614.304,264.996,611.483z"/>
<path fill-rule="evenodd" clip-rule="evenodd" fill="#A38E78" d="M485.006,611.565c2.028-2.159,4.678-1.306,7.065-1.312
	c28.148-0.056,56.318-0.681,84.438,0.238c13.889,0.455,27.76,1.313,41.669,0.996c12.678,2.829,19.888,11.061,20.913,23.882
	c-0.099,7.194-0.568,14.406-0.179,21.571c0.308,5.635-1.629,7.173-7.165,7.124c-23.576-0.216-47.156,0.018-70.736,0.088
	c-2.771,1.674-4.806-0.284-6.727-1.633c-21.747-15.292-43.762-30.204-65.228-45.893C487.27,615.324,485.298,614.096,485.006,611.565
	z"/>
<path fill-rule="evenodd" clip-rule="evenodd" fill="#7F6E5D" d="M454.837,465.122c-8.833,0.002-17.667,0.002-26.498,0.003
	c-0.107-14.858-0.212-29.717-0.321-44.573c-2.133-2.712-2.264-5.928-2.273-9.161c-0.047-16.795-0.039-33.589-0.008-50.384
	c0.008-3.268,0.403-6.411,2.334-9.177c0.07-4.975,0.15-9.949,0.208-14.924c0.125-10.268,5.104-16.523,13.186-16.552
	c8.189-0.027,13.404,6.167,13.41,16.328C454.903,379.495,454.856,422.31,454.837,465.122z"/>
<path fill-rule="evenodd" clip-rule="evenodd" fill="#EEC219" d="M586.594,412.872c30.461,0.014,60.924,0.025,91.387,0.037
	c-15.629,15.234-32.935,28.55-49.243,43.01c-7.234,6.417-14.734,12.534-22.077,18.833c-4.061,3.484-8.398,5.288-13.605,2.635
	c-5.095-2.595-6.441-7.071-6.426-12.402C586.68,447.615,586.613,430.242,586.594,412.872z"/>
<path fill-rule="evenodd" clip-rule="evenodd" fill="#E44C3C" d="M428.07,351.829c-0.018,22.907-0.033,45.815-0.053,68.723
	c-23.915-8.891-47.82-17.812-71.759-26.643c-3.766-1.388-6.95-3.322-6.934-7.673c0.018-4.386,3.358-6.232,7.057-7.608
	C380.29,369.725,404.176,360.768,428.07,351.829z"/>
<path fill-rule="evenodd" clip-rule="evenodd" fill="#F3EDC8" d="M665.563,254.411c-34.116,0-68.236,0.023-102.354-0.017
	c-9.223-0.01-14.578-3.791-15.529-10.687c-1.093-7.903,2.66-13.48,10.593-15.397c2.141-0.519,4.424-0.622,6.644-0.624
	c67.242-0.03,134.481-0.036,201.724-0.013c11.347,0.004,17.23,4.454,17.418,12.941c0.198,9.001-4.602,13.714-14.642,13.758
	c-25.402,0.111-50.807,0.038-76.208,0.038C683.993,254.411,674.78,254.411,665.563,254.411z"/>
<path fill-rule="evenodd" clip-rule="evenodd" fill="#F3EDC8" d="M697.928,306.854c-23.165-0.001-46.328,0.03-69.494-0.017
	c-9.913-0.019-14.881-4.253-15.015-12.563c-0.141-8.653,4.899-13.074,15.239-13.081c46.827-0.035,93.652-0.037,140.479,0
	c10.166,0.009,14.924,4.09,14.924,12.489c-0.002,8.896-4.814,13.142-15.146,13.159C745.252,306.881,721.59,306.854,697.928,306.854z
	"/>
<path fill-rule="evenodd" clip-rule="evenodd" fill="#F3EDC8" d="M626.429,333.632c21.147-0.001,42.294-0.029,63.438,0.012
	c9.494,0.018,15.125,4.63,15.466,12.48c0.339,7.727-5.875,14.132-15.016,14.175c-42.292,0.193-84.583,0.179-126.875-0.011
	c-6.945-0.03-13.64-2.085-15.6-10.023c-2.352-9.518,3.518-16.547,13.655-16.598C583.143,333.56,604.786,333.633,626.429,333.632z"/>
<path fill-rule="evenodd" clip-rule="evenodd" fill="#F3EDC8" d="M567.433,281.277c2.727,0,5.476-0.237,8.171,0.047
	c6.726,0.708,10.988,5.75,10.984,12.666c-0.004,6.817-4.403,12.184-11.014,12.701c-5.174,0.404-10.407,0.301-15.603,0.098
	c-7.792-0.304-12.386-5.189-12.382-12.786c0.004-7.589,4.598-12.364,12.411-12.777c2.47-0.131,4.953-0.021,7.432-0.021
	C567.433,281.229,567.433,281.253,567.433,281.277z"/>
<path fill-rule="evenodd" clip-rule="evenodd" fill="#F3EDC8" d="M485.006,611.565c23.385,16.469,46.763,32.954,70.177,49.383
	c1.805,1.266,3.882,2.144,5.83,3.202c10.43,9.656,22.862,16.576,34.239,24.942c14.803,10.883,30.083,21.116,45.112,31.693
	c7.792,5.483,12.121,12.737,12.094,22.616c-0.113,45.311-0.145,90.623,0.075,135.935c0.027,5.81-1.48,7.765-7.499,7.618
	c-19.405-0.463-38.821-0.35-58.234-0.463c0-0.004-0.22,0.278-0.22,0.278c-2.852-3.393-2.262-7.506-2.268-11.436
	c-0.047-32.599-0.023-65.198-0.027-97.797c-0.002-2.985,0.088-5.976-0.132-8.956c-1.046-14.162-10.586-23.202-24.275-23.033
	c-13.635,0.172-23.093,9.506-23.218,23.873c-0.306,35.085-0.057,70.173-0.145,105.261c-0.01,4.151,0.797,8.553-2.382,12.121
	c-6.53,2.352-13.289,0.963-19.933,1.086c-12.907,0.243-25.83-0.202-38.729,0.196c-5.658,0.176-7.083-1.65-7.056-7.171
	c0.214-44.693,0.14-89.39,0.073-134.085c-0.004-3.14,0.892-6.474-1.131-9.407c-2.638-1.429-3.06-4.374-4.447-6.632
	c-10.226-16.676-32.423-16.67-42.653,0.006c-1.385,2.258-1.799,5.213-4.461,6.618c-2.003,2.938-1.107,6.268-1.113,9.413
	c-0.064,44.446-0.16,88.896,0.092,133.34c0.035,6.125-1.516,8.104-7.815,7.939c-16.626-0.434-33.27-0.151-49.907-0.142
	c-2.73,0-5.478,0.177-8.011-1.162c-3.018-3.323-2.383-7.453-2.389-11.376c-0.053-33.096-0.026-66.192-0.031-99.289
	c-0.001-2.986,0.105-5.978-0.148-8.956c-1.039-12.278-9.743-20.927-21.685-21.591c-12.854-0.716-22.459,6.355-25.182,18.555
	c-0.82,3.677-0.712,7.42-0.714,11.151c-0.011,33.348,0.017,66.691-0.031,100.037c-0.005,3.93,0.585,8.043-2.267,11.436
	c0,0-0.22-0.276-0.222-0.278c-20.137,0.107-40.273,0.084-60.406,0.404c-6.12,0.098-5.2-3.822-5.2-7.479
	c-0.008-45.26,0.085-90.518-0.073-135.776c-0.035-9.571,3.943-16.753,11.26-22.301c5.134-3.896,10.592-7.36,15.86-11.078
	c21.865-15.441,43.713-30.904,65.568-46.361c24.936-17.435,49.872-34.87,74.808-52.305c11.388-7.909,22.819-15.755,34.148-23.748
	c6.248-4.407,12.259-4.397,18.506-0.004C462.181,595.822,473.612,603.665,485.006,611.565z"/>
<path fill-rule="evenodd" clip-rule="evenodd" fill="#5F5346" d="M415.797,737.415c3.778-13.591,13.307-21.289,26.16-21.14
	c12.502,0.146,21.723,7.819,25.401,21.144c-0.006,47.016-0.161,94.03,0.141,141.038c0.045,6.949-1.952,8.954-8.758,8.645
	c-11.669-0.533-23.389-0.474-35.064-0.018c-6.176,0.241-8.007-1.633-7.976-7.892C415.937,831.934,415.81,784.674,415.797,737.415z"
	/>
<path fill-rule="evenodd" clip-rule="evenodd" fill="#5F5346" d="M534.134,886.804c-0.018-38.778-0.096-77.559-0.023-116.337
	c0.031-16.582,10.982-27.815,26.583-27.656c15.16,0.156,25.904,11.434,25.932,27.625c0.066,38.776-0.021,77.555-0.045,116.333
	C569.097,886.78,551.615,886.792,534.134,886.804z"/>
<path fill-rule="evenodd" clip-rule="evenodd" fill="#5F5346" d="M296.596,886.771c-0.023-39.027-0.127-78.055-0.033-117.081
	c0.038-15.538,11.036-26.725,25.909-26.879c15.339-0.159,26.526,10.924,26.575,26.908c0.12,39.025,0.013,78.056-0.003,117.083
	C331.561,886.792,314.078,886.78,296.596,886.771z"/>
<path fill-rule="evenodd" clip-rule="evenodd" fill="#464F5D" d="M138.11,743.149c-0.008,4.229,0.203,8.473-0.055,12.688
	c-0.439,7.183-5.565,12.486-12.078,12.874c-7.019,0.42-12.859-3.553-13.873-10.769c-1.419-10.097-1.247-20.38-0.103-30.489
	c0.811-7.164,6.933-11.533,13.638-11.133c6.873,0.411,12.086,5.891,12.44,13.393C138.29,734.182,138.118,738.67,138.11,743.149z"/>
<path fill-rule="evenodd" clip-rule="evenodd" fill="#464F5D" d="M138.122,822.372c0.003,3.982,0.147,7.971-0.028,11.944
	c-0.336,7.647-5.386,13.195-12.152,13.592c-7.453,0.438-13.661-4.333-14.173-12.251c-0.609-9.407-0.605-18.928,0.101-28.325
	c0.566-7.549,6.813-12.236,13.805-11.808c6.887,0.426,12.059,5.886,12.408,13.413C138.288,813.406,138.12,817.896,138.122,822.372z"
	/>
<path fill-rule="evenodd" clip-rule="evenodd" fill="#464F5D" d="M190.611,822.111c0.002,4.479,0.205,8.97-0.042,13.437
	c-0.425,7.696-5.588,12.466-13.034,12.384c-7.121-0.08-12.336-4.691-12.597-12c-0.337-9.444-0.331-18.92-0.002-28.366
	c0.255-7.313,5.46-11.96,12.561-12.053c7.322-0.1,12.658,4.825,13.065,12.414C190.815,812.644,190.609,817.381,190.611,822.111z"/>
<path fill-rule="evenodd" clip-rule="evenodd" fill="#464F5D" d="M190.611,742.93c0,4.479,0.204,8.971-0.044,13.437
	c-0.428,7.714-5.563,12.448-13.038,12.366c-7.132-0.08-12.335-4.68-12.593-11.992c-0.335-9.447-0.331-18.922,0-28.369
	c0.257-7.299,5.5-11.979,12.57-12.068c7.322-0.089,12.651,4.842,13.058,12.44C190.815,733.46,190.61,738.199,190.611,742.93z"/>
<path fill-rule="evenodd" clip-rule="evenodd" fill="#464F5D" d="M771.611,821.652c0,4.479,0.349,8.988-0.074,13.427
	c-0.765,8.016-6.338,13.007-13.727,12.853c-7.177-0.149-12.516-5.725-12.715-13.779c-0.206-8.453-0.237-16.925,0.025-25.379
	c0.233-7.477,5.638-12.917,12.537-13.255c6.986-0.343,12.799,4.4,13.731,11.977c0.572,4.652,0.104,9.433,0.104,14.157
	C771.533,821.652,771.572,821.652,771.611,821.652z"/>
<path fill-rule="evenodd" clip-rule="evenodd" fill="#464F5D" d="M745.049,742.42c0.008-4.23-0.155-8.47,0.043-12.689
	c0.354-7.502,5.55-12.989,12.423-13.408c6.708-0.41,12.81,3.937,13.644,11.115c1.174,10.109,1.329,20.392-0.094,30.488
	c-1.022,7.236-6.83,11.195-13.857,10.785c-6.524-0.38-11.533-5.68-12.135-12.854c-0.041-0.495-0.027-0.997-0.027-1.493
	C745.041,750.383,745.043,746.4,745.049,742.42z"/>
<path fill-rule="evenodd" clip-rule="evenodd" fill="#464F5D" d="M692.608,821.286c0-4.729-0.282-9.478,0.066-14.181
	c0.527-7.071,6.005-11.724,13.072-11.593c6.813,0.124,12.133,4.541,12.413,11.387c0.407,9.937,0.423,19.917-0.018,29.852
	c-0.302,6.783-5.75,11.14-12.584,11.183c-7.136,0.045-12.217-4.543-12.958-11.716c-0.051-0.494-0.064-0.993-0.066-1.491
	c-0.006-4.48-0.002-8.96-0.002-13.44C692.558,821.286,692.583,821.286,692.608,821.286z"/>
<path fill-rule="evenodd" clip-rule="evenodd" fill="#464F5D" d="M718.297,742.848c0,4.729,0.272,9.476-0.064,14.181
	c-0.514,7.229-5.715,11.759-12.884,11.708c-7.134-0.051-12.417-4.652-12.684-11.917c-0.347-9.446-0.327-18.92-0.014-28.368
	c0.241-7.239,5.538-12.02,12.559-12.148c7.372-0.132,12.641,4.699,13.069,12.36c0.265,4.715,0.051,9.456,0.051,14.185
	C718.318,742.848,718.307,742.848,718.297,742.848z"/>
</svg>
