<?xml version="1.0" encoding="utf-8"?>
<!-- Generator: Adobe Illustrator 24.3.0, SVG Export Plug-In . SVG Version: 6.00 Build 0)  -->
<svg version="1.1" id="Layer_1" xmlns="http://www.w3.org/2000/svg" xmlns:xlink="http://www.w3.org/1999/xlink" x="0px" y="0px"
	 viewBox="0 0 100 100" style="enable-background:new 0 0 100 100;" xml:space="preserve">
<style type="text/css">
	.st0{fill:#FAC312;}
</style>
<path d="M92.4,56.7c-0.3-0.1-0.7-0.1-1-0.2c-3.2-0.8-4.8-1.3-6-3.5l-4.2-8.5c-1.3-2.6-4.8-4.7-7.8-4.7h-7.6V34
	c0-1.7-1.4-3.2-3.2-3.2H44.5C44.2,19.2,34.7,10,23.1,10C11.2,10,1.6,19.7,1.6,31.6c0,6.7,3.1,12.7,7.9,16.7v29.3
	c0,1.7,1.4,3.2,3.2,3.2h5.5C19,86.5,24,91,30,91s11-4.5,11.9-10.3h20c0.1,0,0.3,0,0.4,0C63.1,86.5,68.1,91,74.2,91
	c6,0,11-4.5,11.9-10.3H94c3,0,5.5-2.5,5.5-5.5v-9.5C99.4,58.2,95.2,57.3,92.4,56.7z M30,83.5c-2.4,0-4.4-2-4.4-4.4s2-4.4,4.4-4.4
	s4.4,2,4.4,4.4S32.5,83.5,30,83.5z M74.2,83.5c-2.4,0-4.4-2-4.4-4.4s2-4.4,4.4-4.4s4.4,2,4.4,4.4S76.6,83.5,74.2,83.5z M65.9,56
	L65.9,56V44.3h5.8c2.2,0,5,1.7,6,3.6l3.8,7.6c0.1,0.2,0.2,0.4,0.3,0.5C81.8,56,65.9,56,65.9,56z"/>
<path class="st0" d="M23.1,16.5c8.3,0,15.1,6.8,15.1,15.1s-6.8,15.1-15.1,15.1S8,39.9,8,31.6S14.8,16.5,23.1,16.5z"/>
<path d="M23.3,35.4l5.6,1.8c0.3,0.1,0.7,0.2,1,0.2c1.4,0,2.6-0.9,3.1-2.3c0.5-1.7-0.4-3.5-2.1-4.1l-4.5-1.4L25.9,29v-4.1
	c0-1.8-1.5-3.2-3.2-3.2c-1.8,0-3.2,1.5-3.2,3.2v5.2C19.4,32.4,21.1,34.7,23.3,35.4z"/>
</svg>
