<?xml version="1.0" encoding="utf-8"?>
<!-- Generator: Adobe Illustrator 16.0.0, SVG Export Plug-In . SVG Version: 6.00 Build 0)  -->
<!DOCTYPE svg PUBLIC "-//W3C//DTD SVG 1.0//EN" "http://www.w3.org/TR/2001/REC-SVG-20010904/DTD/svg10.dtd">
<svg version="1.0" id="Layer_1" xmlns="http://www.w3.org/2000/svg" xmlns:xlink="http://www.w3.org/1999/xlink" x="0px" y="0px"
	 width="864px" height="1296px" viewBox="0 0 864 1296" enable-background="new 0 0 864 1296" xml:space="preserve">
<g>
	<path fill="#FFFFFF" d="M59.161,516.434c0-10.484,0-20.969,0-31.451c0.881-4.888,1.839-9.765,2.633-14.668
		C83.9,333.687,242.592,265.944,355.957,345.432c19.324,13.551,35.578,31.48,53.243,47.394c2.039,1.837,4.025,3.733,6.455,5.994
		c9.952-10.11,19.115-19.794,28.703-29.043c7.698-7.43,15.52-14.827,23.952-21.379c44.418-34.507,94.474-52.646,150.646-42.747
		c84.305,14.857,138.989,65.322,164.996,146.676c3.516,11.002,4.828,22.706,7.161,34.084c0,10.482,0,20.967,0,31.45
		c-0.417,1.57-1.041,3.122-1.219,4.722c-4.449,40.276-21.158,75.229-46.261,106.518c-4.698,5.854-9.691,11.479-14.748,17.439
		c24.088,22.312,34.407,48.707,23.629,80.175c-10.688,31.196-34.334,46.668-66.884,49.507c-0.729,19.756-7.891,36.406-21.761,50.056
		c-13.845,13.627-30.738,20.196-49.88,20.845c-4.032,67.513-88.319,96.138-133.457,38.569c-1.64,2.325-2.884,4.729-4.702,6.564
		c-12.901,13.032-25.637,26.256-38.968,38.838c-28.086,26.515-73.338,24.556-99.469-3.863c-11.935-12.98-17.87-28.412-18.836-46.077
		c-41.325-4.673-64.513-27.699-69.911-68.372c-25.547-1.919-45.102-13.102-57.139-35.433c-12.157-22.554-10.456-45.251,2.188-67.99
		c-1.886-1.603-3.768-3.062-5.49-4.688c-23.036-21.743-46.028-43.535-69.071-65.271C94.158,615.837,76.456,587.7,67.042,554.7
		C63.481,542.209,61.735,529.202,59.161,516.434z M699.709,616.543c1.303-2.003,2.329-4.254,3.938-5.954
		c28.044-29.676,42.766-64.818,43.533-105.696c2.055-109.161-107.273-186.036-209.685-148.061
		c-38.385,14.235-63.259,44.485-92.085,72.688c2.351,1.768,4.425,3.012,6.118,4.648c21.232,20.541,42.602,40.942,63.549,61.771
		c20.178,20.063,26.928,44.648,20.806,72.121c-6.366,28.578-24.248,47.894-52.317,56.113c-28.683,8.399-54.667,2.182-76.481-18.815
		c-8.382-8.064-16.387-16.521-24.605-24.839c-1.484,0.968-2.367,1.349-3,1.981c-48.872,48.836-97.8,97.615-146.417,146.707
		c-3.402,3.435-5.605,8.976-6.415,13.863c-1.681,10.128,4,19.363,13.226,23.897c9.42,4.63,19.671,3.187,27.643-4.589
		c13.647-13.302,26.985-26.92,40.509-40.349c10.364-10.295,23.219-11.064,32.274-2.052c9.009,8.965,8.289,22.051-1.891,32.309
		c-11.916,12.004-23.935,23.907-35.868,35.896c-12.911,12.972-13.858,29.54-2.42,41.213c11.396,11.628,28.293,10.821,41.196-2.022
		c11.649-11.597,23.242-23.253,34.884-34.858c11.044-11.009,24.086-12.05,33.28-2.697c8.982,9.136,7.928,22.101-2.729,32.801
		c-11.431,11.48-22.914,22.906-34.354,34.38c-13.413,13.449-14.499,29.75-2.986,41.736c9.303,9.685,28.219,12.438,41.842-2.395
		c11.756-12.798,24.337-24.852,36.869-36.906c3.792-3.65,4.641-6.432,2.408-11.551c-13.212-30.306-3.311-66.004,23.455-85.4
		c5.28-3.827,11.137-6.862,16.71-10.25c-16.328-26.898-18.047-54.391-0.435-80.281c21.064-30.972,51.316-38.713,86.556-27.866
		C596.418,589.413,661.172,577.579,699.709,616.543z M223.691,679.627c1.897-2.707,3.124-5.134,4.946-6.962
		c39.01-39.117,78.704-77.577,116.911-117.464c21.393-22.331,52.854-22.326,71.968-0.086c6.036,7.023,12.952,13.309,19.653,19.732
		c8.21,7.871,18.001,11.565,29.374,9.481c13.502-2.476,23.081-10.079,27.148-23.374c4.24-13.863,0.198-25.748-10.066-35.725
		c-44.562-43.318-88.791-86.988-133.774-129.863c-33.702-32.124-74.466-45.688-120.598-39.114
		c-56.836,8.097-97.085,39.55-117.38,93.119c-20.301,53.582-11.558,104.467,26.464,147.321
		C164.154,625.798,194.146,651.2,223.691,679.627z M609.531,804.18c15.911-0.658,24.82-6.337,29.91-17.082
		c5.285-11.151,3.969-22.276-4.615-31.115c-21.704-22.346-43.713-44.402-66.077-66.085c-11.47-11.118-28.492-9.999-39.712,1.457
		c-10.958,11.19-11.259,28.472-0.105,39.798c21.354,21.691,42.737,43.371,64.728,64.408
		C598.618,800.302,606.109,802.391,609.531,804.18z M649.803,636.165c-16.229,0.546-25.091,6.31-30.087,17.122
		c-5.173,11.195-3.622,22.143,4.908,31.101c13.13,13.777,26.604,27.247,40.358,40.405c11.802,11.285,29.235,10.644,40.343-0.787
		c11.126-11.456,11.457-28.072,0.188-39.785c-13.033-13.547-26.126-27.087-40.009-39.731
		C660.417,639.855,652.991,637.787,649.803,636.165z M537.832,874.225c15.905-0.713,24.807-6.498,29.759-17.293
		c4.996-10.887,3.555-21.634-4.645-30.525c-8.863-9.608-18.151-18.869-27.729-27.773c-11.391-10.586-28.052-9.75-39.229,1.363
		c-10.622,10.561-11.647,27.713-1.537,38.786c8.974,9.826,18.295,19.452,28.394,28.083
		C527.759,871.064,534.79,872.794,537.832,874.225z"/>
</g>
</svg>
