<?xml version="1.0" encoding="utf-8"?>
<!-- Generator: Adobe Illustrator 24.3.0, SVG Export Plug-In . SVG Version: 6.00 Build 0)  -->
<svg version="1.1" id="Layer_1" xmlns="http://www.w3.org/2000/svg" xmlns:xlink="http://www.w3.org/1999/xlink" x="0px" y="0px"
	 viewBox="0 0 100 100" style="enable-background:new 0 0 100 100;" xml:space="preserve">
<style type="text/css">
	.st0{fill:#FFFFFF;}
	.st1{fill:#FAC312;}
</style>
<path class="st0" d="M51.9,60.3H38.6c1.6,2.8,2.5,6.1,2.5,9.7c0,0.8-0.1,1.6-0.2,2.4h8.6c-0.1-0.8-0.2-1.6-0.2-2.4
	C49.3,66.5,50.2,63.2,51.9,60.3z"/>
<path class="st0" d="M21.4,55.1c-8.2,0-14.9,6.7-14.9,14.9s6.7,14.9,14.9,14.9S36.3,78.2,36.3,70C36.2,61.8,29.5,55.1,21.4,55.1z
	 M21.4,75.5c-3,0-5.5-2.4-5.5-5.5c0-3,2.4-5.5,5.5-5.5c3,0,5.5,2.4,5.5,5.5C26.8,73,24.4,75.5,21.4,75.5z"/>
<path class="st0" d="M69.1,55.1c-8.2,0-14.9,6.7-14.9,14.9s6.7,14.9,14.9,14.9C77.3,84.9,84,78.2,84,70S77.3,55.1,69.1,55.1z
	 M69.1,75.5c-3,0-5.5-2.4-5.5-5.5c0-3,2.4-5.5,5.5-5.5c3.1,0,5.5,2.4,5.5,5.5C74.6,73,72.1,75.5,69.1,75.5z"/>
<path class="st0" d="M84.9,40.2V27.9H65.3v22.3h12.5l11,11v10.6h10.1V40.2H84.9z M70.2,40.2v-7.3H80v7.3H70.2z"/>
<path class="st1" d="M52.8,16.2L52.8,16.2l-7.5,7.4H2.1V43l38.4,12.6h12.3l7-32.9h11.5v-6.5C71.3,16.2,52.8,16.2,52.8,16.2z
	 M31.8,32.3h6.3l-2.6,12.4l-5.8-1.9L31.8,32.3z M25.5,41.4l-5.8-1.9l1.5-7.2h6.3L25.5,41.4z M10.9,32.3h5.9l-1.3,5.8l-4.6-1.5V32.3z
	 M45.8,46.8H42L39.7,46l2.9-13.7h6.3L45.8,46.8z"/>
</svg>
