<?xml version="1.0" encoding="utf-8"?>
<!-- Generator: Adobe Illustrator 16.0.0, SVG Export Plug-In . SVG Version: 6.00 Build 0)  -->
<!DOCTYPE svg PUBLIC "-//W3C//DTD SVG 1.1//EN" "http://www.w3.org/Graphics/SVG/1.1/DTD/svg11.dtd">
<svg version="1.1" id="Layer_1" xmlns="http://www.w3.org/2000/svg" xmlns:xlink="http://www.w3.org/1999/xlink" x="0px" y="0px"
	 width="864px" height="708px" viewBox="0 368.5 864 708" enable-background="new 0 368.5 864 708" xml:space="preserve">
<g>
	<path fill="#FFFFFF" d="M66.09,604.48c0-10.484,0-20.968,0-31.451c0.881-4.887,1.839-9.764,2.633-14.668
		c22.106-136.628,180.798-204.37,294.163-124.882c19.324,13.55,35.578,31.48,53.243,47.393c2.039,1.837,4.025,3.734,6.455,5.994
		c9.952-10.11,19.115-19.794,28.703-29.043c7.698-7.429,15.52-14.827,23.952-21.379c44.418-34.506,94.474-52.646,150.646-42.747
		c84.304,14.858,138.989,65.323,164.996,146.676c3.516,11.002,4.828,22.706,7.161,34.084c0,10.483,0,20.967,0,31.45
		c-0.417,1.571-1.041,3.122-1.219,4.722c-4.449,40.276-21.158,75.229-46.26,106.518c-4.699,5.854-9.692,11.478-14.749,17.439
		c24.088,22.312,34.408,48.707,23.629,80.175c-10.688,31.196-34.334,46.668-66.883,49.507c-0.729,19.756-7.891,36.406-21.761,50.055
		c-13.845,13.627-30.738,20.197-49.88,20.845c-4.032,67.513-88.319,96.138-133.457,38.569c-1.64,2.326-2.884,4.73-4.702,6.565
		c-12.902,13.032-25.637,26.256-38.968,38.838c-28.086,26.514-73.338,24.555-99.469-3.864c-11.934-12.98-17.87-28.412-18.836-46.077
		c-41.325-4.673-64.513-27.699-69.911-68.372c-25.547-1.919-45.102-13.101-57.139-35.432c-12.157-22.554-10.456-45.251,2.188-67.991
		c-1.886-1.602-3.768-3.061-5.49-4.688c-23.036-21.743-46.028-43.535-69.071-65.271c-24.977-23.561-42.679-51.698-52.094-84.698
		C70.41,630.256,68.664,617.249,66.09,604.48z M706.638,704.59c1.302-2.003,2.329-4.254,3.938-5.954
		c28.044-29.676,42.766-64.819,43.533-105.697c2.055-109.161-107.273-186.036-209.684-148.06
		c-38.385,14.235-63.259,44.485-92.085,72.688c2.35,1.768,4.425,3.012,6.118,4.649c21.232,20.541,42.602,40.942,63.549,61.77
		c20.178,20.064,26.928,44.649,20.806,72.121c-6.367,28.578-24.249,47.894-52.318,56.114c-28.682,8.399-54.667,2.181-76.481-18.816
		c-8.382-8.064-16.387-16.52-24.606-24.839c-1.484,0.968-2.367,1.349-3,1.982c-48.872,48.836-97.8,97.615-146.417,146.707
		c-3.402,3.434-5.605,8.975-6.415,13.863c-1.681,10.128,4,19.363,13.226,23.898c9.42,4.629,19.671,3.186,27.643-4.589
		c13.647-13.302,26.985-26.92,40.509-40.349c10.364-10.295,23.219-11.064,32.275-2.052c9.008,8.965,8.289,22.051-1.891,32.309
		c-11.916,12.004-23.935,23.907-35.868,35.896c-12.911,12.972-13.858,29.54-2.42,41.213c11.396,11.628,28.293,10.821,41.196-2.022
		c11.65-11.597,23.242-23.253,34.884-34.859c11.044-11.009,24.086-12.05,33.28-2.697c8.983,9.136,7.928,22.101-2.729,32.801
		c-11.431,11.48-22.914,22.906-34.355,34.38c-13.413,13.449-14.499,29.75-2.986,41.736c9.303,9.685,28.219,12.437,41.842-2.395
		c11.756-12.797,24.337-24.851,36.869-36.906c3.792-3.65,4.64-6.431,2.408-11.551c-13.212-30.305-3.31-66.003,23.455-85.4
		c5.28-3.827,11.137-6.862,16.71-10.25c-16.328-26.898-18.047-54.39-0.435-80.281c21.065-30.972,51.317-38.713,86.556-27.866
		C603.347,677.46,668.101,665.626,706.638,704.59z M230.62,767.674c1.897-2.707,3.124-5.134,4.946-6.962
		c39.01-39.117,78.704-77.577,116.911-117.464c21.392-22.331,52.854-22.326,71.967-0.086c6.036,7.024,12.953,13.309,19.654,19.733
		c8.21,7.871,18.001,11.565,29.374,9.481c13.502-2.476,23.081-10.079,27.148-23.374c4.24-13.863,0.198-25.748-10.066-35.725
		c-44.563-43.318-88.791-86.988-133.775-129.863c-33.702-32.124-74.466-45.688-120.598-39.114
		c-56.836,8.096-97.085,39.55-117.38,93.119C98.5,591.001,107.243,641.886,145.265,684.74
		C171.083,713.845,201.074,739.247,230.62,767.674z M616.46,892.227c15.911-0.659,24.82-6.337,29.91-17.082
		c5.285-11.152,3.969-22.277-4.615-31.116c-21.704-22.345-43.713-44.402-66.077-66.085c-11.47-11.118-28.492-9.999-39.712,1.457
		c-10.958,11.191-11.259,28.472-0.106,39.798c21.354,21.692,42.738,43.371,64.728,64.408
		C605.547,888.349,613.038,890.438,616.46,892.227z M656.731,724.212c-16.228,0.546-25.09,6.31-30.086,17.122
		c-5.173,11.195-3.623,22.143,4.908,31.101c13.13,13.777,26.603,27.247,40.358,40.405c11.802,11.285,29.235,10.643,40.343-0.787
		c11.126-11.456,11.457-28.072,0.187-39.785c-13.033-13.547-26.126-27.087-40.008-39.732
		C667.346,727.902,659.92,725.834,656.731,724.212z M544.761,962.271c15.905-0.712,24.806-6.498,29.759-17.292
		c4.996-10.887,3.554-21.634-4.645-30.526c-8.863-9.608-18.151-18.869-27.729-27.773c-11.391-10.586-28.052-9.75-39.229,1.363
		c-10.622,10.561-11.647,27.713-1.537,38.786c8.974,9.826,18.295,19.452,28.393,28.083
		C534.688,959.111,541.719,960.841,544.761,962.271z"/>
</g>
</svg>
