<?xml version="1.0" encoding="utf-8"?>
<!-- Generator: Adobe Illustrator 16.0.0, SVG Export Plug-In . SVG Version: 6.00 Build 0)  -->
<!DOCTYPE svg PUBLIC "-//W3C//DTD SVG 1.1//EN" "http://www.w3.org/Graphics/SVG/1.1/DTD/svg11.dtd">
<svg version="1.1" id="Layer_1" xmlns="http://www.w3.org/2000/svg" xmlns:xlink="http://www.w3.org/1999/xlink" x="0px" y="0px"
	 width="864px" height="1296px" viewBox="0 0 864 1296" enable-background="new 0 0 864 1296" xml:space="preserve">
<circle fill="#FFFFFF" cx="208.224" cy="824.256" r="28.512"/>
<circle fill="#FFFFFF" cx="705.888" cy="824.256" r="28.512"/>
<path fill="#94D5A3" d="M432.044,508.961c-113.355,0-205.247,91.892-205.247,205.247c0,113.355,91.892,205.247,205.247,205.247
	c113.354,0,205.247-91.892,205.247-205.247C637.291,600.854,545.398,508.961,432.044,508.961z M288.148,671.303
	c3.198-21.831,14.32-37.389,34.221-46.818c7.382-3.499,15.3-4.32,21.546-5.201c33.275,1.295,56.86,23.313,59.569,55.629
	c1.021,12.175-8.767,23.072-20.343,23.722c-10.908,0.613-21.02-9.171-22.033-21.317c-0.756-9.021-7.002-15.306-15.344-15.438
	c-8.618-0.136-15.782,6.257-15.632,15.68c0.192,12.101-13.792,22.604-23.761,20.964
	C293.455,696.396,286.185,684.712,288.148,671.303z M549.635,786.578c-23.312,22.016-50.597,36.575-81.995,43.13
	c-35.291,7.366-69.598,3.99-102.864-10.031c-20.015-8.432-37.581-20.364-52.744-35.91c-9.559-9.799-10.06-20.834-1.158-29.898
	c9.166-9.333,21.292-9.269,31.346,0.519c17.648,17.178,38.232,29.021,62.459,33.707c44.004,8.512,83.039-1.496,115.931-32.661
	c11.591-10.979,24.292-11.195,33.89-0.148c3.558,4.094,4.98,8.977,5.074,14.317C559.036,776.885,554.171,781.632,549.635,786.578z
	 M571.019,690.754c-5.952,6.686-13.142,9.711-22.153,6.569c-9.274-3.231-14.053-9.37-14.812-19.368
	c-0.956-12.54-11.51-19.523-22.268-14.54c-5.918,2.743-8.385,7.985-8.887,14.238c-0.957,11.884-11.555,21.843-22.396,20.968
	c-12.169-0.98-21.722-12.857-19.969-25.485c3.058-21.998,13.668-38.731,34.312-48.484c7.662-3.616,15.698-4.655,22.099-5.31
	c30.062,0.109,54.186,21.562,58.467,49.582C576.657,677.076,576.673,684.404,571.019,690.754z"/>
<path fill="#D9387D" d="M69.1,690.218c1.909-13.698,3.22-27.512,5.822-41.075c20.695-107.9,78.792-189.957,171.879-247.67
	c1.181-0.73,2.52-1.212,3.785-1.811c2.929,0.596,3.992,3.068,5.261,5.294c15.138,26.54,30.461,52.973,45.756,79.423
	c1.275,2.203,3.034,4.33,1.698,7.168c-24.571,15.278-47.083,33.005-65.864,55.198c-35.296,41.708-55.945,89.59-60.796,144.131
	c-0.459,5.163-0.996,10.342-1.051,15.519c-0.054,5.06-2.41,7.479-7.275,7.484c-30.676,0.034-61.353-0.014-92.028,0.074
	c-2.806,0.006-4.751-1.79-7.188-2.475C69.1,704.393,69.1,697.304,69.1,690.218z"/>
<path fill="#B2E49E" d="M613.388,399.68c19.728,10.319,37.338,23.685,54.255,37.982c21.144,17.868,39.641,38.229,56.358,60.279
	c3.186,4.2,3.453,7.396,0.917,11.925c-7.249,12.944-14.105,26.109-21.028,39.239c-4.443,8.43-2.752,11.504,6.91,11.856
	c14.354,0.526,28.715,0.399,43.079,1.246c6.43,0.379,9.366,2.294,11.818,8.138c13.548,32.306,22.611,65.691,26.691,100.525
	c0.753,6.428-0.22,13.162,2.509,19.347c0,7.086,0,14.175,0,21.261c-3.348,1.868-6.825,2.746-10.767,2.729
	c-28.33-0.132-56.663-0.049-84.995-0.084c-9.337-0.008-10.173-1.194-10.686-10.617c-3.072-56.23-21.572-106.584-56.935-150.731
	c-19.857-24.795-44.038-44.357-70.622-61.273c-1.606-2.508-0.011-4.505,1.127-6.497c15.387-26.938,31.197-53.628,46.453-80.637
	C609.629,402.325,610.746,400.185,613.388,399.68z"/>
<path fill="#FEDF7D" d="M562.021,485.005c15.387-26.938,31.197-53.628,46.453-80.637c1.155-2.043,2.272-4.184,4.914-4.688
	c-0.513-0.471-0.959-1.058-1.55-1.396c-47.755-27.373-99.232-43.019-154.025-46.565c-39.856-2.581-79.466,0.355-118.295,10.955
	c-31.264,8.534-61.161,20.155-88.933,36.987c0,0,0.001,0.001,0.001,0.002c2.929,0.596,3.992,3.068,5.261,5.294
	c15.138,26.54,30.461,52.973,45.756,79.423c1.275,2.203,3.034,4.33,1.698,7.168c-0.001,0-0.002,0.001-0.003,0.002
	c1.685-0.824,3.408-1.587,5.056-2.482c57.425-31.252,118.172-38.961,181.789-25.285c25.033,5.38,48.171,15.907,70.747,27.713
	C559.291,488.99,560.884,486.995,562.021,485.005z"/>
</svg>
