<?xml version="1.0" encoding="utf-8"?>
<!-- Generator: Adobe Illustrator 24.3.0, SVG Export Plug-In . SVG Version: 6.00 Build 0)  -->
<svg version="1.1" id="Layer_1" xmlns="http://www.w3.org/2000/svg" xmlns:xlink="http://www.w3.org/1999/xlink" x="0px" y="0px"
	 viewBox="0 0 100 100" style="enable-background:new 0 0 100 100;" xml:space="preserve">
<style type="text/css">
	.st0{fill:#FFFFFF;}
	.st1{fill:#FAC312;}
</style>
<path d="M94.2,36.2h-55c-1.4,0-2.6,1.2-2.6,2.6v27.4h-1.9V41.7v-9.4h0.6c1.4,0,2.6-1.2,2.6-2.6s-1.2-2.6-2.6-2.6h-3.2
	c-1.4,0-2.6,1.2-2.6,2.6v9.8l-12.7,1.8c-1.2,0.2-2.1,1.2-2.2,2.4l-0.4,6.7l-9.6,2.1c-1.2,0.3-2,1.3-2,2.5v13.8
	c0,1.4,1.2,2.6,2.6,2.6h10.5c0.5,4.2,4.1,7.5,8.4,7.5c4.4,0,8-3.3,8.4-7.5h28.9c0.5,4.2,4.1,7.5,8.4,7.5c2.3,0,4.4-0.9,5.9-2.4
	c1.5,1.5,3.6,2.4,5.9,2.4c4.4,0,8-3.3,8.4-7.5h4.1c1.4,0,2.6-1.2,2.6-2.6v-30C96.8,37.4,95.6,36.2,94.2,36.2L94.2,36.2z"/>
<polygon class="st0" points="21.4,45.9 21.4,49.9 19.4,49.9 19.6,46.1 "/>
<path class="st0" d="M7.8,57.1l9.2-2h7c1.4,0,2.6-1.2,2.6-2.6v-7.4l2.9-0.4v19.2c-1.5-1.2-3.4-2-5.4-2c-3.1,0-5.9,1.7-7.4,4.3h-9
	C7.8,66.2,7.8,57.1,7.8,57.1z"/>
<circle class="st0" cx="24.1" cy="70.4" r="3.3"/>
<circle class="st0" cx="69.9" cy="70.4" r="3.3"/>
<circle class="st0" cx="81.7" cy="70.4" r="3.3"/>
<path class="st1" d="M91.6,66.2H89c-1.5-2.5-4.2-4.3-7.4-4.3c-2.3,0-4.4,0.9-5.9,2.4c-1.5-1.5-3.6-2.4-5.9-2.4
	c-3.1,0-5.9,1.7-7.4,4.3H41.8V41.4h49.8V66.2L91.6,66.2z"/>
<polygon points="59.4,50.5 56,50.5 56,47 53.1,47 53.1,50.5 49.7,50.5 49.7,53.3 53.1,53.3 53.1,56.7 56,56.7 56,53.3 59.4,53.3 "/>
<g>
	<path d="M64.9,60.2c-0.5,0-1,0-1.6-0.1s-1.2-0.1-1.9-0.2v-3.3h0.9c0.8,0.2,1.5,0.2,2.2,0.2c0.9,0,1.6-0.1,2-0.4
		c0.4-0.2,0.6-0.7,0.6-1.3c0-0.3-0.1-0.6-0.2-0.9c-0.1-0.2-0.3-0.4-0.6-0.5c-0.3-0.1-0.7-0.2-1.2-0.3s-1.1-0.1-1.9-0.1h-1.5
		l-0.2-0.2l0.6-8.6h8.2V48h-5.1l-0.1,2.4c2.1,0,3.7,0.4,4.7,1.1c1,0.7,1.5,1.9,1.5,3.6c0,0.8-0.2,1.6-0.5,2.2
		c-0.3,0.6-0.8,1.1-1.3,1.6c-0.6,0.4-1.3,0.7-2,0.9C66.7,60.1,65.8,60.2,64.9,60.2z"/>
	<path d="M78.7,60.1c-2,0-3.6-0.7-4.7-2s-1.6-3.3-1.6-5.9c0-2.6,0.5-4.6,1.6-5.9c1.1-1.3,2.6-2,4.7-2c2,0,3.6,0.7,4.6,2
		c1.1,1.3,1.6,3.3,1.6,5.9c0,2.6-0.5,4.6-1.6,5.9C82.3,59.5,80.7,60.1,78.7,60.1z M78.7,56.7c0.4,0,0.7-0.1,0.9-0.2
		c0.3-0.1,0.5-0.4,0.6-0.7c0.2-0.3,0.3-0.8,0.3-1.4c0.1-0.6,0.1-1.3,0.1-2.1s0-1.5-0.1-2.1s-0.2-1-0.3-1.4c-0.2-0.4-0.4-0.6-0.6-0.7
		c-0.3-0.1-0.6-0.2-0.9-0.2c-0.4,0-0.7,0.1-1,0.2c-0.3,0.2-0.5,0.4-0.6,0.7c-0.2,0.3-0.3,0.8-0.3,1.4c-0.1,0.6-0.1,1.3-0.1,2.1
		s0,1.5,0.1,2.1s0.2,1,0.3,1.4c0.2,0.3,0.4,0.6,0.6,0.7C78,56.6,78.3,56.7,78.7,56.7z"/>
</g>
</svg>
