<?xml version="1.0" encoding="utf-8"?>
<!-- Generator: Adobe Illustrator 16.0.0, SVG Export Plug-In . SVG Version: 6.00 Build 0)  -->
<!DOCTYPE svg PUBLIC "-//W3C//DTD SVG 1.0//EN" "http://www.w3.org/TR/2001/REC-SVG-20010904/DTD/svg10.dtd">
<svg version="1.0" id="Layer_1" xmlns="http://www.w3.org/2000/svg" xmlns:xlink="http://www.w3.org/1999/xlink" x="0px" y="0px"
	 width="864px" height="1296px" viewBox="0 0 864 1296" enable-background="new 0 0 864 1296" xml:space="preserve">
<g>
	<path fill="#FFFFFF" d="M736.036,702.996c0,9.181-7.649,16.83-16.83,16.83c-9.946,0-17.596-7.649-17.596-16.83
		s7.649-16.83,16.83-16.83C728.387,686.166,736.036,693.815,736.036,702.996z"/>
	<path fill="#FFFFFF" d="M622.812,702.996c0,9.181-7.65,16.83-16.83,16.83c-9.181,0-16.831-7.649-16.831-16.83
		s7.65-16.83,16.831-16.83C615.162,686.166,622.812,693.815,622.812,702.996z"/>
	<path fill="#FFFFFF" d="M497.201,790.725c17.904-0.781,33.428,3.382,48.66,9.238c23.92,9.195,48.756,13.71,74.372,13.853
		c15.474,0.084,30.943,0.003,46.414,0.031c10.075,0.018,12.29,1.592,16.182,11.601c11.185,0,22.531,0.063,33.878-0.019
		c10.098-0.075,17.882,3.908,22.457,13.033c4.455,8.896,2.839,17.308-2.885,25.183c-9.131,12.564-21.495,19.094-36.942,19.75
		c-5.301,0.226-10.624,0.037-16.52,0.037c-2.2,10.488-9.73,12.03-19.042,11.741c-24.87-0.772-49.777-0.568-74.623-1.731
		c-11.238-0.524-22.369-3.368-34.251-5.272c0,21.191,0,42.509,0,64.369c-8.041,0-15.372,0-23.624,0c0-5.872,0-11.829,0-17.787
		c0.001-20.307-0.082-40.611,0.039-60.917c0.062-10.31,6.64-15.763,16.003-12.585c36.048,12.235,73.271,11.042,111.043,10.377
		c0-11.238,0-22.437,0-34.577c-9.958,0-20.021-0.124-30.079,0.022c-27.024,0.394-53.48-2.993-79.251-11.365
		c-11.226-3.646-22.364-9.263-33.824-10.105c-22.038-1.619-44.278-0.469-67.084-0.469c6.605,11.002,13.001,22.556,20.298,33.503
		c5.196,7.795,5.202,14.517,0.803,22.777c-10.66,20.026-20.526,40.479-30.569,60.83c-2.517,5.097-5.628,9.147-11.811,9.155
		c-6.189,0.007-9.282-4.049-11.802-9.147c-10.479-21.211-20.985-42.408-31.808-63.445c-3.225-6.269-3.196-11.627,0.582-17.619
		c7.456-11.822,14.462-23.925,21.578-35.785c-0.52-0.661-0.793-1.307-1.052-1.298c-24.806,0.588-49.879-3.306-74.339,2.933
		c-15.163,3.868-29.629,10.962-44.929,13.676c-20.343,3.607-41.173,4.618-61.834,6.218c-9.104,0.709-18.309,0.121-27.971,0.121
		c0,11.586,0,22.782,0,34.598c35.991,0.381,71.942,2.194,106.883-9.214c14.696-4.801,20.246-0.499,20.251,15.014
		c0.009,24.874,0.003,49.747,0.003,75.132c-7.709,0-15.035,0-23.056,0c0-21.453,0-42.863,0-64.261
		c-13.492,1.963-26.266,4.897-39.145,5.459c-25.576,1.118-51.207,0.998-76.818,1.219c-7.253,0.062-10.607-4.794-12.197-10.884
		c-8.371-0.665-16.656-0.626-24.654-2.121c-12.736-2.381-22.435-9.851-29.21-20.841c-9.703-15.736,0.576-35.018,19.074-35.609
		c11.343-0.362,22.705-0.068,34.635-0.068c1.813-9.916,8.617-11.635,17.581-11.8c26.059-0.472,52.191-0.764,78.121-3.074
		c13.49-1.204,26.925-5.641,39.826-10.202c15.851-5.603,31.642-10.377,50.521-9.691c-29.733-24.663-46.06-54.768-46.145-92.214
		c-0.087-37.309,14.893-68.046,43.907-91.439c47.074-37.952,115.672-32.356,157,11.74
		C552.662,662.34,557.835,740.841,497.201,790.725z M426.288,651.339c-28.469,0.219-52.841,6.619-76.431,17.639
		c-11.477,5.36-15.643,12.863-15.951,25.049c-1.516,60.116,51.445,105.847,110.56,94.97c45.419-8.353,78.565-51.617,75.007-97.816
		c-0.461-6.007-2.144-10.521-7.918-14.147C484.66,660.148,455.498,651.644,426.288,651.339z M502.048,644.637
		c-17.724-24.878-41.699-38.428-71.986-39.484c-30.926-1.072-56.023,11.33-75.493,35.506
		C404.302,622.469,453.35,623.917,502.048,644.637z M426.843,824.903c-5.069,8.412-8.692,16.189-13.921,22.678
		c-7.44,9.233-7.175,17.38-0.924,27.126c5.602,8.739,9.552,18.539,14.856,29.113c7.256-14.466,13.797-27.324,20.095-40.3
		c0.693-1.428,0.672-3.892-0.115-5.242C440.559,847.465,434.021,836.807,426.843,824.903z M682.433,860.26
		c13.152-0.369,26.435,2.704,35.33-11.109c-12.274,0-23.791,0-35.33,0C682.433,852.939,682.433,856.219,682.433,860.26z
		 M171.056,859.86c0-3.902,0-7.353,0-10.566c-11.354,0-22.198,0-33.489,0C145.228,859.535,151.069,861.331,171.056,859.86z"/>
	<path fill="#FFFFFF" d="M426.766,256.854c64.098-0.027,116.216,52.182,116.112,116.309
		c-0.105,63.711-52.222,115.734-115.967,115.759c-64.083,0.021-116.207-52.206-116.1-116.337
		C310.916,308.835,362.971,256.88,426.766,256.854z M385.245,290.683c5.751,9.263,13.42,14.801,24.982,12.605
		c0.933-0.179,1.931,0.02,2.895-0.028c7.36-0.366,11.689,3.174,13.864,10.122c3.245,10.359,6.621,20.687,10.295,30.898
		c2.178,6.051,0.761,10.79-3.655,15.086c-4.503,4.382-9.354,8.513-13.238,13.399c-7.407,9.329-16.477,13.575-28.408,11.822
		c-2.751-0.404-6.406-0.63-8.413,0.794c-13.307,9.468-26.282,19.408-40.034,29.695c5.625,7.853,10.749,15.009,16.185,22.6
		c8.258-6.16,15.568-11.627,22.892-17.074c23.258-17.294,16.594-15.661,41.877-4.092c8.897,4.069,14.244,9.624,15.776,19.64
		c1.396,9.124,4.454,17.991,6.857,27.261c23.565-6.11,41.829-17.859,55.446-37.493c-2.883-0.987-4.926-1.698-6.979-2.387
		c-15.326-5.139-30.67-10.22-45.97-15.425c-11.936-4.058-14.129-10.821-7.139-21.514c0.529-0.811,0.969-1.695,1.593-2.42
		c13.829-16.043,21.04-34.112,17.666-55.679c-0.863-5.514,1.92-9.689,6.627-12.721c6.247-4.023,12.354-8.266,18.6-12.467
		C463.323,278.538,412.739,272.501,385.245,290.683z M365.586,304.179c-24.318,18.655-38.383,61.781-28.667,86.752
		c8.97-6.686,18.255-12.804,26.581-20.031c8.541-7.414,17.67-11.189,29.003-9.726c2.424,0.313,5.537-0.03,7.477-1.338
		c12.274-8.28,13.556-12.931,9.339-26.572c-1.598-5.175-3.961-7.746-9.578-6.825c-8.925,1.462-15.866-1.833-21.53-8.827
		C374.432,312.944,369.986,308.815,365.586,304.179z M503.063,321.037c-0.222,0.054-0.476,0.057-0.666,0.168
		c-17.533,10.194-17.915,10.205-17.359,30.603c0.248,9.19-1.777,16.971-7.476,24.119c-3.355,4.207-6.036,8.95-9.375,13.983
		c15.787,5.238,30.512,10.121,45.159,14.981C524.589,378.439,519.854,341.451,503.063,321.037z M423.404,465.534
		c-2.121-8.713-3.744-16.465-5.949-24.045c-1.448-4.98-11.575-9.133-15.315-6.457c-7.551,5.403-14.894,11.098-22.882,17.095
		C392.918,460.677,407.027,464.495,423.404,465.534z"/>
	<path fill="#FFFFFF" d="M195.048,430.914c63.711,0.098,115.777,52.23,115.748,115.899
		c-0.029,63.929-52.509,116.336-116.325,116.164c-63.827-0.168-115.927-52.723-115.74-116.743
		C78.917,482.66,131.209,430.816,195.048,430.914z M231.183,552.493c21.761,11.688,32.638,29.747,33.563,54.344
		c29.146-31.609,33.586-89.171-5.975-126.91c-38.213-36.45-97.539-34.12-132.898,5c-36.974,40.91-26.132,96.933-0.986,121.436
		c0.708-24.523,12.066-42.341,33.245-53.839c-14.603-24.695-11.966-48.557,6.831-64.304c17.662-14.796,43.014-14.479,60.475,0.753
		C239.363,501.121,249.552,526.345,231.183,552.493z M195.012,570.164c-3.861,0-7.724-0.061-11.584,0.01
		c-19.86,0.364-34.675,15.089-35.053,34.88c-0.108,5.548,0.263,11.123-0.117,16.646c-0.294,4.268,1.358,6.457,5.118,8.254
		c25.347,12.155,50.898,12.86,77.113,2.73c8.02-3.1,10.53-7.31,11.08-16.243C243.523,584.611,226.506,567.19,195.012,570.164z
		 M194.614,546.922c12.573,0.074,23.163-10.304,23.329-22.865c0.167-12.596-10.109-23.245-22.68-23.506
		c-12.912-0.268-23.704,10.312-23.681,23.218C171.602,536.366,182.028,546.847,194.614,546.922z"/>
	<path fill="#FFFFFF" d="M659.193,430.914c64.026,0.093,116.003,52.477,115.764,116.657
		c-0.239,63.656-52.508,115.514-116.316,115.412c-64.021-0.104-115.976-52.482-115.751-116.688
		C543.116,482.621,595.33,430.82,659.193,430.914z M658.769,454.122c-50.968,0.057-92.663,41.81-92.67,92.792
		c-0.009,50.99,41.671,92.777,92.615,92.858c51.323,0.08,93.144-41.798,93.034-93.167
		C751.638,495.676,709.805,454.065,658.769,454.122z"/>
	<path fill="#FFFFFF" d="M159.651,686.562c0,7.578,0,14.716,0,22.35c-7.423,0-14.729,0-22.477,0c0-7.365,0-14.673,0-22.35
		C144.552,686.562,151.69,686.562,159.651,686.562z"/>
	<path fill="#FFFFFF" d="M693.881,708.938c0-7.618,0-14.589,0-22.149c7.36,0,14.676,0,22.533,0c0,7.052,0,14.363,0,22.149
		C709.161,708.938,701.854,708.938,693.881,708.938z"/>
	<path fill="#FFFFFF" d="M137.133,732.936c7.509,0,14.647,0,22.303,0c0,7.349,0,14.66,0,22.432c-7.292,0-14.6,0-22.303,0
		C137.133,748.061,137.133,740.922,137.133,732.936z"/>
	<path fill="#FFFFFF" d="M694.016,755.475c0-7.643,0-14.78,0-22.392c7.487,0,14.798,0,22.521,0c0,7.43,0,14.737,0,22.392
		C709.093,755.475,701.953,755.475,694.016,755.475z"/>
	<path fill="#FFFFFF" d="M137.069,801.847c0-7.508,0-14.646,0-22.304c7.35,0,14.661,0,22.432,0c0,7.295,0,14.603,0,22.304
		C152.195,801.847,145.055,801.847,137.069,801.847z"/>
	<path fill="#FFFFFF" d="M694.053,801.853c0-7.527,0-14.668,0-22.315c7.371,0,14.683,0,22.448,0c0,7.312,0,14.618,0,22.315
		C709.168,801.853,702.027,801.853,694.053,801.853z"/>
	<path fill="#FFFFFF" d="M426.843,824.903c7.178,11.902,13.716,22.561,19.991,33.375c0.787,1.351,0.809,3.814,0.115,5.242
		c-6.298,12.975-12.84,25.834-20.095,40.3c-5.304-10.574-9.254-20.374-14.856-29.113c-6.251-9.746-6.516-17.893,0.924-27.126
		C418.148,841.095,421.774,833.315,426.843,824.903z"/>
	<path fill="#FFFFFF" d="M346.023,686.551c7.165,0,14.337,0,22.157,0c1.898,5.694,4.825,11.308,12.389,11.133
		c7.135-0.166,10.429-5.014,11.863-11.231c7.659,0,14.845,0,22.001,0c1.638,17.264-13.916,33.713-32.358,34.504
		C362.381,721.801,345.889,706.225,346.023,686.551z"/>
	<path fill="#FFFFFF" d="M438.714,686.46c7.655,0,14.837,0,22.38,0c1.829,6.291,5.097,11.563,12.689,11.204
		c6.8-0.318,10.06-4.94,11.38-11.123c7.657,0,15.062,0,22.459,0c0.261,18.73-15.071,34.183-33.816,34.442
		C454.765,721.245,439.342,706.386,438.714,686.46z"/>
	<path fill="#FFFFFF" d="M670.583,581.72c0,11.961,0,22.809,0,34.252c-7.572,0-14.905,0-23.037,0c0-10.965,0-22.175,0-34.226
		c-6.475,0-12.194,0.1-17.912-0.018c-19.689-0.406-35.452-13.571-39.55-32.939c-3.755-17.749,5.603-35.796,22.602-44.347
		c3.017-1.518,5.911-4.021,7.884-6.77c19.539-27.247,57.539-27.116,76.878,0.247c1.94,2.747,4.956,5.13,7.988,6.642
		c16.473,8.203,25.939,26.404,22.41,43.83c-3.874,19.15-19.392,32.636-38.511,33.296C683.354,581.896,677.354,581.72,670.583,581.72
		z M659.018,558.547c9.187,0,18.373,0.104,27.56-0.029c10.013-0.145,17.19-6.023,18.557-14.912
		c1.339-8.709-4.147-16.912-13.769-19.256c-5.795-1.41-9.137-4.526-11.467-9.819c-3.97-9.02-11.21-13.91-21.079-13.87
		c-9.873,0.04-17.064,5.021-20.965,14.054c-2.319,5.374-5.853,8.282-11.567,9.702c-9.353,2.323-14.654,10.082-13.64,18.665
		c1.051,8.922,8.271,15.228,18.089,15.419C640.159,558.681,649.59,558.54,659.018,558.547z"/>
</g>
</svg>
