<?xml version="1.0" encoding="utf-8"?>
<!-- Generator: Adobe Illustrator 24.3.0, SVG Export Plug-In . SVG Version: 6.00 Build 0)  -->
<svg version="1.1" id="Layer_1" xmlns="http://www.w3.org/2000/svg" xmlns:xlink="http://www.w3.org/1999/xlink" x="0px" y="0px"
	 viewBox="0 0 100 100" style="enable-background:new 0 0 100 100;" xml:space="preserve">
<style type="text/css">
	.st0{fill:#FFFFFF;}
</style>
<path class="st0" d="M95.5,57.1L95.5,57.1l-0.1-7.6c0-0.3-0.1-0.5-0.3-0.7l-5.7-6.7c-0.2-0.2-0.5-0.4-0.8-0.4H81
	c-0.6,0-1.1,0.5-1.1,1.1v14.3H44.1c-0.6,0-1.1,0.5-1.1,1.1v4c0,0.6,0.5,1.1,1.1,1.1h2.8c0.1,0,0.4,0,0.4-0.4c0-1.9,1.6-3.5,3.5-3.5
	s3.5,1.6,3.5,3.5c0,0.4,0.3,0.4,0.4,0.4h0.8c0.1,0,0.4,0,0.4-0.4c0-1.9,1.6-3.5,3.5-3.5s3.5,1.6,3.5,3.5c0,0.4,0.3,0.4,0.4,0.4h6.2
	c0.1,0,0.4,0,0.4-0.4c0-1.9,1.6-3.5,3.5-3.5s3.5,1.6,3.5,3.5c0,0.4,0.3,0.4,0.4,0.4h7c0.1,0,0.4,0,0.4-0.4c0-1.9,1.6-3.5,3.5-3.5
	s3.5,1.6,3.5,3.5c0,0.4,0.3,0.4,0.4,0.4h3.4c0.6,0,1.1-0.5,1.1-1.1v-4C96.6,57.5,96.1,57.1,95.5,57.1z M91.5,49.3
	c-0.1,0.1-0.2,0.2-0.3,0.2l0,0h-8.4c-0.2,0-0.3-0.2-0.3-0.3v-4.6c0-0.2,0.2-0.3,0.3-0.3h4.6c0.1,0,0.2,0,0.3,0.1l3.8,4.6
	C91.6,49,91.6,49.1,91.5,49.3z"/>
<path class="st0" d="M90.5,62.8c0,1.2-1,2.2-2.2,2.2C87,65,86,64,86,62.8s1-2.2,2.2-2.2C89.5,60.6,90.5,61.6,90.5,62.8z"/>
<path class="st0" d="M75.7,62.8c0,1.2-1,2.2-2.2,2.2s-2.2-1-2.2-2.2s1-2.2,2.2-2.2S75.7,61.6,75.7,62.8z"/>
<circle class="st0" cx="59.5" cy="62.8" r="2.2"/>
<circle class="st0" cx="50.8" cy="62.8" r="2.2"/>
<g>
	<path class="st0" d="M33.6,60.6c-1.2,0-2.2,1-2.2,2.2s1,2.2,2.2,2.2s2.2-1,2.2-2.2S34.8,60.6,33.6,60.6z"/>
	<path class="st0" d="M19.6,60.6c-1.2,0-2.2,1-2.2,2.2s1,2.2,2.2,2.2s2.2-1,2.2-2.2C21.8,61.6,20.8,60.6,19.6,60.6z"/>
	<path class="st0" d="M11,60.6c-1.2,0-2.2,1-2.2,2.2S9.8,65,11,65s2.2-1,2.2-2.2S12.2,60.6,11,60.6z"/>
	<path class="st0" d="M40.3,57.1h-0.8h-1.9H4.3c-0.6,0-1.1,0.5-1.1,1.1v4c0,0.6,0.5,1.1,1.1,1.1h2.8c0.1,0,0.4,0,0.4-0.4
		c0-1.9,1.6-3.5,3.5-3.5s3.5,1.6,3.5,3.5c0,0.4,0.3,0.4,0.4,0.4h0.8c0.1,0,0.4,0,0.4-0.4c0-1.9,1.6-3.5,3.5-3.5s3.5,1.6,3.5,3.5
		c0,0.4,0.3,0.4,0.4,0.4h6.2c0.1,0,0.4,0,0.4-0.4c0-1.9,1.6-3.5,3.5-3.5c1.9,0,3.5,1.6,3.5,3.5c0,0.4,0.3,0.4,0.4,0.4h0.1h1.9h0.8
		c0.6,0,1.1-0.5,1.1-1.1v-4C41.3,57.5,40.9,57.1,40.3,57.1z"/>
</g>
</svg>
