<?xml version="1.0" encoding="utf-8"?>
<!-- Generator: Adobe Illustrator 16.0.0, SVG Export Plug-In . SVG Version: 6.00 Build 0)  -->
<!DOCTYPE svg PUBLIC "-//W3C//DTD SVG 1.1//EN" "http://www.w3.org/Graphics/SVG/1.1/DTD/svg11.dtd">
<svg version="1.1" id="Layer_1" xmlns="http://www.w3.org/2000/svg" xmlns:xlink="http://www.w3.org/1999/xlink" x="0px" y="0px"
	 width="864px" height="844px" viewBox="0 220.5 864 844" enable-background="new 0 220.5 864 844" xml:space="preserve">
<path fill="#FFFFFF" d="M781.92,758.592c0,10.368-8.64,19.008-19.008,19.008c-11.232,0-19.872-8.64-19.872-19.008
	s8.64-19.008,19.008-19.008C773.28,739.584,781.92,748.224,781.92,758.592z"/>
<path fill="#FFFFFF" d="M654.048,758.592c0,10.368-8.64,19.008-19.008,19.008s-19.008-8.64-19.008-19.008s8.64-19.008,19.008-19.008
	S654.048,748.224,654.048,758.592z"/>
<path fill="#FFFFFF" d="M512.186,857.671c20.22-0.883,37.752,3.818,54.955,10.433c27.015,10.385,55.064,15.484,83.994,15.644
	c17.475,0.096,34.947,0.004,52.419,0.036c11.379,0.02,13.881,1.798,18.275,13.101c12.632,0,25.446,0.072,38.261-0.021
	c11.404-0.085,20.195,4.414,25.362,14.72c5.032,10.046,3.206,19.547-3.258,28.44c-10.312,14.19-24.276,21.564-41.721,22.306
	c-5.987,0.254-11.998,0.041-18.657,0.041c-2.485,11.846-10.99,13.587-21.505,13.261c-28.088-0.873-56.218-0.643-84.278-1.955
	c-12.692-0.593-25.263-3.805-38.682-5.955c0,23.932,0,48.009,0,72.697c-9.081,0-17.361,0-26.681,0c0-6.632,0-13.36,0-20.089
	c0.002-22.933-0.092-45.865,0.045-68.798c0.07-11.643,7.498-17.801,18.073-14.213c40.711,13.819,82.75,12.47,125.409,11.719
	c0-12.691,0-25.339,0-39.05c-11.247,0-22.611-0.14-33.97,0.026c-30.521,0.444-60.4-3.381-89.504-12.836
	c-12.678-4.117-25.258-10.461-38.202-11.413c-24.888-1.828-50.005-0.53-75.762-0.53c7.46,12.425,14.683,25.474,22.924,37.838
	c5.869,8.803,5.875,16.395,0.907,25.724c-12.04,22.617-23.183,45.716-34.525,68.7c-2.842,5.756-6.356,10.331-13.339,10.34
	c-6.99,0.007-10.482-4.573-13.329-10.331c-11.834-23.955-23.7-47.896-35.922-71.653c-3.642-7.08-3.61-13.132,0.657-19.9
	c8.421-13.351,16.333-27.019,24.37-40.415c-0.587-0.746-0.896-1.475-1.189-1.465c-28.014,0.663-56.332-3.733-83.957,3.312
	c-17.125,4.369-33.462,12.38-50.742,15.445c-22.975,4.074-46.5,5.216-69.834,7.023c-10.282,0.799-20.677,0.136-31.589,0.136
	c0,13.085,0,25.73,0,39.074c40.647,0.43,81.25,2.478,120.711-10.407c16.597-5.422,22.866-0.563,22.871,16.957
	c0.011,28.092,0.004,56.183,0.004,84.852c-8.706,0-16.979,0-26.039,0c0-24.229,0-48.408,0-72.574
	c-15.237,2.216-29.664,5.531-44.209,6.165c-28.885,1.262-57.832,1.127-86.756,1.376c-8.192,0.07-11.98-5.414-13.775-12.292
	c-9.454-0.751-18.811-0.706-27.844-2.396c-14.384-2.688-25.337-11.125-32.989-23.536c-10.958-17.772,0.651-39.549,21.542-40.217
	c12.81-0.409,25.642-0.077,39.116-0.077c2.048-11.199,9.732-13.141,19.855-13.326c29.431-0.533,58.944-0.862,88.228-3.473
	c15.236-1.359,30.409-6.37,44.979-11.521c17.901-6.327,35.736-11.72,57.057-10.945c-33.58-27.855-52.018-61.854-52.115-104.145
	c-0.098-42.135,16.819-76.85,49.588-103.269c53.164-42.862,130.637-36.542,177.311,13.259
	C574.822,712.676,580.664,801.333,512.186,857.671z M432.098,700.252c-32.153,0.247-59.678,7.475-86.32,19.92
	c-12.962,6.055-17.666,14.528-18.014,28.29c-1.712,67.894,58.1,119.54,124.864,107.257c51.295-9.434,88.729-58.296,84.711-110.472
	c-0.521-6.784-2.421-11.883-8.942-15.978C498.021,710.201,465.087,700.596,432.098,700.252z M517.659,692.683
	c-20.016-28.097-47.094-43.4-81.299-44.592c-34.927-1.211-63.271,12.796-85.259,40.099
	C407.268,667.646,462.661,669.281,517.659,692.683z M432.725,896.271c-5.725,9.5-9.818,18.284-15.723,25.612
	c-8.402,10.428-8.104,19.628-1.044,30.636c6.327,9.869,10.788,20.936,16.778,32.879c8.195-16.337,15.582-30.859,22.695-45.514
	c0.783-1.613,0.758-4.395-0.13-5.92C448.215,921.752,440.831,909.715,432.725,896.271z M721.381,936.201
	c14.854-0.416,29.855,3.055,39.901-12.546c-13.862,0-26.869,0-39.901,0C721.381,927.935,721.381,931.638,721.381,936.201z
	 M143.845,935.751c0-4.407,0-8.305,0-11.934c-12.822,0-25.069,0-37.821,0C114.676,935.384,121.273,937.411,143.845,935.751z"/>
<path fill="#FFFFFF" d="M432.638,254.73c72.39-0.031,131.252,58.933,131.134,131.356c-0.12,71.954-58.978,130.707-130.97,130.735
	c-72.374,0.025-131.242-58.96-131.121-131.388C301.8,313.436,360.589,254.76,432.638,254.73z M385.745,292.935
	c6.495,10.462,15.156,16.716,28.214,14.236c1.054-0.202,2.181,0.022,3.27-0.032c8.312-0.413,13.202,3.585,15.658,11.432
	c3.665,11.699,7.477,23.363,11.627,34.895c2.459,6.834,0.859,12.186-4.128,17.038c-5.086,4.948-10.565,9.614-14.951,15.133
	c-8.366,10.536-18.609,15.331-32.083,13.351c-3.108-0.456-7.235-0.711-9.501,0.898c-15.029,10.693-29.682,21.919-45.213,33.537
	c6.352,8.869,12.139,16.951,18.278,25.523c9.326-6.957,17.582-13.132,25.854-19.283c26.266-19.532,18.74-17.687,47.295-4.621
	c10.047,4.596,16.086,10.869,17.817,22.181c1.576,10.304,5.03,20.318,7.744,30.788c26.614-6.902,47.241-20.17,62.62-42.344
	c-3.256-1.115-5.563-1.918-7.883-2.696c-17.308-5.804-34.637-11.542-51.917-17.421c-13.479-4.583-15.957-12.222-8.062-24.298
	c0.599-0.915,1.095-1.914,1.799-2.733c15.618-18.119,23.762-38.526,19.952-62.882c-0.975-6.228,2.168-10.943,7.484-14.367
	c7.055-4.544,13.951-9.335,21.006-14.08C473.925,279.22,416.796,272.402,385.745,292.935z M363.543,308.178
	c-27.464,21.068-43.349,69.774-32.375,97.976c10.13-7.55,20.616-14.461,30.02-22.623c9.645-8.373,19.957-12.637,32.755-10.984
	c2.739,0.354,6.254-0.034,8.445-1.512c13.862-9.351,15.309-14.604,10.548-30.01c-1.805-5.844-4.474-8.748-10.818-7.708
	c-10.079,1.652-17.919-2.07-24.315-9.969C373.533,318.077,368.512,313.414,363.543,308.178z M518.807,327.217
	c-0.251,0.061-0.537,0.064-0.753,0.189c-19.801,11.514-20.233,11.526-19.605,34.563c0.28,10.379-2.008,19.167-8.443,27.239
	c-3.789,4.751-6.817,10.107-10.588,15.792c17.83,5.915,34.459,11.43,51.002,16.919C543.116,392.045,537.77,350.272,518.807,327.217z
	 M428.841,490.408c-2.396-9.841-4.229-18.596-6.719-27.156c-1.635-5.625-13.072-10.314-17.297-7.292
	c-8.528,6.103-16.82,12.534-25.843,19.307C394.411,484.923,410.345,489.234,428.841,490.408z"/>
<path fill="#FFFFFF" d="M170.941,451.309c71.954,0.11,130.756,58.987,130.723,130.893c-0.033,72.199-59.302,131.387-131.375,131.193
	c-72.084-0.19-130.925-59.544-130.714-131.847C39.785,509.75,98.843,451.198,170.941,451.309z M211.751,588.617
	c24.576,13.2,36.861,33.595,37.906,61.375c32.917-35.699,37.931-100.708-6.748-143.329c-43.157-41.166-110.158-38.534-150.091,5.647
	c-41.758,46.203-29.513,109.473-1.114,137.146c0.8-27.696,13.628-47.819,37.546-60.805c-16.492-27.889-13.514-54.838,7.715-72.623
	c19.947-16.711,48.579-16.352,68.298,0.851C220.989,530.599,232.496,559.087,211.751,588.617z M170.9,608.574
	c-4.36,0-8.723-0.068-13.083,0.012c-22.43,0.411-39.161,17.041-39.588,39.393c-0.122,6.265,0.297,12.561-0.132,18.798
	c-0.332,4.82,1.535,7.292,5.78,9.323c28.626,13.727,57.483,14.523,87.09,3.083c9.057-3.501,11.892-8.256,12.513-18.344
	C225.688,624.891,206.469,605.216,170.9,608.574z M170.451,582.326c14.2,0.084,26.16-11.637,26.347-25.823
	c0.189-14.226-11.417-26.252-25.614-26.547c-14.582-0.303-26.77,11.646-26.745,26.222
	C144.462,570.404,156.237,582.241,170.451,582.326z"/>
<path fill="#FFFFFF" d="M695.136,451.309c72.309,0.105,131.011,59.266,130.74,131.749c-0.271,71.891-59.301,130.459-131.365,130.343
	c-72.304-0.117-130.98-59.271-130.726-131.784C564.041,509.705,623.01,451.203,695.136,451.309z M694.655,477.52
	c-57.561,0.064-104.65,47.218-104.658,104.796c-0.011,57.587,47.062,104.781,104.597,104.872
	c57.963,0.09,105.194-47.206,105.07-105.221C799.54,524.449,752.295,477.455,694.655,477.52z"/>
<path fill="#FFFFFF" d="M130.965,740.031c0,8.559,0,16.62,0,25.241c-8.383,0-16.635,0-25.385,0c0-8.318,0-16.571,0-25.241
	C113.912,740.031,121.974,740.031,130.965,740.031z"/>
<path fill="#FFFFFF" d="M734.311,765.302c0-8.604,0-16.476,0-25.015c8.312,0,16.574,0,25.448,0c0,7.964,0,16.222,0,25.015
	C751.567,765.302,743.315,765.302,734.311,765.302z"/>
<path fill="#FFFFFF" d="M105.533,792.405c8.48,0,16.542,0,25.188,0c0,8.299,0,16.557,0,25.333c-8.235,0-16.488,0-25.188,0
	C105.533,809.486,105.533,801.425,105.533,792.405z"/>
<path fill="#FFFFFF" d="M734.463,817.859c0-8.631,0-16.692,0-25.288c8.456,0,16.712,0,25.434,0c0,8.391,0,16.645,0,25.288
	C751.49,817.859,743.427,817.859,734.463,817.859z"/>
<path fill="#FFFFFF" d="M105.461,870.231c0-8.479,0-16.541,0-25.189c8.3,0,16.558,0,25.334,0c0,8.238,0,16.492,0,25.189
	C122.544,870.231,114.48,870.231,105.461,870.231z"/>
<path fill="#FFFFFF" d="M734.505,870.238c0-8.501,0-16.565,0-25.203c8.324,0,16.582,0,25.352,0c0,8.258,0,16.51,0,25.203
	C751.576,870.238,743.512,870.238,734.505,870.238z"/>
<path fill="#FFFFFF" d="M432.725,896.271c8.106,13.442,15.49,25.479,22.577,37.693c0.888,1.525,0.913,4.307,0.13,5.92
	c-7.113,14.653-14.5,29.177-22.695,45.514c-5.99-11.943-10.451-23.01-16.778-32.879c-7.06-11.008-7.358-20.208,1.044-30.636
	C422.905,914.557,427,905.771,432.725,896.271z"/>
<path fill="#FFFFFF" d="M341.449,740.019c8.092,0,16.193,0,25.024,0c2.143,6.431,5.449,12.771,13.992,12.573
	c8.058-0.188,11.778-5.662,13.397-12.685c8.651,0,16.766,0,24.848,0c1.85,19.498-15.716,38.075-36.545,38.969
	C359.923,779.83,341.297,762.238,341.449,740.019z"/>
<path fill="#FFFFFF" d="M446.131,739.916c8.646,0,16.757,0,25.276,0c2.066,7.105,5.756,13.06,14.33,12.654
	c7.68-0.36,11.362-5.58,12.853-12.562c8.648,0,17.011,0,25.365,0c0.294,21.153-17.021,38.605-38.192,38.898
	C464.259,779.202,446.841,762.42,446.131,739.916z"/>
<path fill="#FFFFFF" d="M707.999,621.626c0,13.509,0,25.76,0,38.684c-8.552,0-16.834,0-26.018,0c0-12.384,0-25.044,0-38.654
	c-7.312,0-13.772,0.114-20.229-0.02c-22.237-0.458-40.039-15.327-44.667-37.2c-4.24-20.045,6.327-40.428,25.525-50.084
	c3.408-1.715,6.677-4.541,8.905-7.646c22.066-30.771,64.983-30.624,86.824,0.279c2.191,3.102,5.597,5.793,9.021,7.501
	c18.604,9.265,29.295,29.821,25.31,49.5c-4.375,21.628-21.9,36.859-43.493,37.604C722.422,621.824,715.646,621.626,707.999,621.626z
	 M694.938,595.455c10.375,0,20.75,0.118,31.125-0.032c11.307-0.164,19.414-6.803,20.957-16.842c1.511-9.836-4.684-19.1-15.55-21.747
	c-6.545-1.593-10.32-5.111-12.95-11.09c-4.484-10.186-12.661-15.709-23.807-15.664c-11.15,0.045-19.272,5.671-23.677,15.872
	c-2.62,6.069-6.609,9.354-13.064,10.957c-10.563,2.624-16.55,11.386-15.405,21.079c1.188,10.076,9.341,17.199,20.43,17.414
	C673.639,595.605,684.29,595.446,694.938,595.455z"/>
</svg>
