<?xml version="1.0" encoding="utf-8"?>
<!-- Generator: Adobe Illustrator 16.0.0, SVG Export Plug-In . SVG Version: 6.00 Build 0)  -->
<!DOCTYPE svg PUBLIC "-//W3C//DTD SVG 1.0//EN" "http://www.w3.org/TR/2001/REC-SVG-20010904/DTD/svg10.dtd">
<svg version="1.0" id="Layer_1" xmlns="http://www.w3.org/2000/svg" xmlns:xlink="http://www.w3.org/1999/xlink" x="0px" y="0px"
	 width="100px" height="100px" viewBox="0 0 100 100" enable-background="new 0 0 100 100" xml:space="preserve">
<g>
	<path fill="#FAC312" d="M37,53.9v12l13.6,5l12.9-5v-12c-3.7,3-8.2,5-13.2,5C45.2,58.8,40.7,56.8,37,53.9z"/>
	<path fill="#545758" d="M66.3,57.6v8.5L50.5,73.4L34,66.2v-8.5C22.8,62.1,14.8,73,14.8,85.7v7.7h70.8v-7.7
		C85.5,72.9,77.5,62,66.3,57.6z"/>
	<path fill="#545758" d="M50.2,57.6c12,0,21.7-17.2,21.7-29.3c0-4.9-1.601-9.5-4.4-13.1c-4-5.4-10.2-8.7-17.3-8.7
		c-5,0-9.6,1.7-13.2,4.6l0,0l0,0c-2.1,1.6-3.9,3.6-5.2,5.9c-2.1,3.1-3.2,7.1-3.2,11.2C28.5,40.3,38.2,57.6,50.2,57.6z M56,20.2
		c0.9,3,10.6,10.2,12.3,11.6c-1.6,10.6-9.8,22.5-18.2,22.5c-7.8,0-15.7-10.7-17.8-20.7C46.3,34.6,56,20.2,56,20.2z"/>
</g>
</svg>
