<?xml version="1.0" encoding="utf-8"?>
<!-- Generator: Adobe Illustrator 24.3.0, SVG Export Plug-In . SVG Version: 6.00 Build 0)  -->
<svg version="1.1" id="Layer_1" xmlns="http://www.w3.org/2000/svg" xmlns:xlink="http://www.w3.org/1999/xlink" x="0px" y="0px"
	 viewBox="0 0 100 100" style="enable-background:new 0 0 100 100;" xml:space="preserve">
<style type="text/css">
	.st0{fill:#FAC312;}
</style>
<path d="M91,50.1c-0.4-0.1-0.7-0.1-1-0.2c-3.3-0.9-5-1.4-6.1-3.6l-4.3-10.9v-0.1c-1.4-2.7-5-4.8-8-4.8H58.8c-0.9,0-2.3,0.6-2.3,2.2
	V59H4.9c-1.2,0-2.1,0.9-2.1,2.1v10.3c0,1.2,0.9,2.1,2.1,2.1h9.9c0.3,6.5,5.7,11.7,12.3,11.7s12-5.2,12.3-11.7h19.3l0,0H60
	c0.3,6.5,5.7,11.7,12.3,11.7c6.2,0,11.3-4.6,12.2-10.6h8.1c3.1,0,5.7-2.5,5.7-5.7v-9.7C98.2,51.6,93.9,50.7,91,50.1z M76.8,72.9
	c0,2.5-2,4.6-4.6,4.6c-2.5,0-4.6-2-4.6-4.6c0-2.5,2-4.6,4.6-4.6C74.8,68.4,76.8,70.4,76.8,72.9z M61.6,49.4V35.1h8.1
	c2.3,0,5.1,1.7,6.1,3.7l3.8,10v0.1c0.1,0.2,0.2,0.4,0.3,0.5C79.9,49.4,61.6,49.4,61.6,49.4z M27.1,68.4c2.5,0,4.6,2,4.6,4.6
	c0,2.5-2,4.6-4.6,4.6c-2.5,0-4.6-2-4.6-4.6S24.6,68.4,27.1,68.4z"/>
<path class="st0" d="M11.8,54.1h36.3c1.8,0,3.3-1.5,3.3-3.3V19.1c0-1.8-1.5-3.3-3.3-3.3H37.4c-1.8,0-3.3,1.5-3.3,3.3v2.3
	c0,0.6-0.5,1.1-1.1,1.1h-6.1c-0.6,0-1.1-0.5-1.1-1.1v-2.3c0-1.8-1.5-3.3-3.3-3.3H11.8c-1.8,0-3.3,1.5-3.3,3.3v31.7
	C8.5,52.6,10,54.1,11.8,54.1z M29.9,30.7l6.5,7.3H33v9.1h-6.2V38h-3.4L29.9,30.7z"/>
</svg>
