<?xml version="1.0" encoding="utf-8"?>
<!-- Generator: Adobe Illustrator 24.3.0, SVG Export Plug-In . SVG Version: 6.00 Build 0)  -->
<svg version="1.1" id="Layer_1" xmlns="http://www.w3.org/2000/svg" xmlns:xlink="http://www.w3.org/1999/xlink" x="0px" y="0px"
	 viewBox="0 0 100 100" style="enable-background:new 0 0 100 100;" xml:space="preserve">
<style type="text/css">
	.st0{fill:#FFFFFF;}
	.st1{fill:#FAC312;}
</style>
<path class="st0" d="M60.2,65.2c-4.3,0-7.8,3.5-7.8,7.8s3.5,7.8,7.8,7.8S68,77.3,68,73C68,68.6,64.5,65.2,60.2,65.2z M60.2,76.5
	c-2,0-3.6-1.6-3.6-3.6s1.6-3.6,3.6-3.6s3.6,1.6,3.6,3.6S62.2,76.5,60.2,76.5z"/>
<path class="st0" d="M79.4,65.2c-4.3,0-7.8,3.5-7.8,7.8s3.5,7.8,7.8,7.8c4.3,0,7.8-3.5,7.8-7.8C87.2,68.6,83.7,65.2,79.4,65.2z
	 M79.4,76.5c-2,0-3.6-1.6-3.6-3.6s1.6-3.6,3.6-3.6s3.6,1.6,3.6,3.6S81.4,76.5,79.4,76.5z"/>
<path class="st0" d="M8.8,69.9H3c-1.4,0-2.5-1.1-2.5-2.5v-4.8C0.5,61.2,1.6,60,3,60h11.5C11.3,62.2,9.1,65.8,8.8,69.9z"/>
<path class="st0" d="M95.9,62.6v4.8c0,1.4-1.1,2.5-2.5,2.5h-4c-1.3-4.3-5.3-7.4-10-7.4c-4.3,0-8,2.6-9.6,6.4
	c-1.6-3.7-5.3-6.4-9.6-6.4c-4.7,0-8.7,3.1-10,7.4h-16c-0.2-4.1-2.4-7.7-5.7-9.8h64.9C94.8,60,95.9,61.2,95.9,62.6z"/>
<path class="st0" d="M21.5,60.6c-5.5,0-10.1,4.5-10.1,10.1c0,5.5,4.5,10.1,10.1,10.1c5.5,0,10.1-4.5,10.1-10.1
	C31.6,65.1,27.1,60.6,21.5,60.6z M21.5,75.1c-2.5,0-4.5-2-4.5-4.5s2-4.5,4.5-4.5s4.5,2,4.5,4.5S24,75.1,21.5,75.1z"/>
<path class="st0" d="M30.1,31.2H11.8c-1.3,0-2.4,1.1-2.4,2.4c0,0.8,0.4,1.5,1,2l-4.5,9.1c-0.8,0.5-1.4,1.5-1.4,2.6v7
	c0,1.6,1.2,3,2.7,3h22.6c1.5,0,2.7-1.3,2.7-3V33.5C32.4,32.3,31.4,31.2,30.1,31.2z M18.7,46.9c0,0-7,0-8.5,0S7.7,46,8.5,44.1
	c0.7-1.6,3-6.1,3-6.1c0.5-1.4,1.7-2.4,3.4-2.4h3.5c1.2,0,2.1,1,2.1,2.1v7.1h0.1C20.6,46,19.8,46.9,18.7,46.9z M29.2,44.9
	c0,1.2-1,2.1-2.1,2.1h-1.9c-1.2,0-2.1-1-2.1-2.1v-7.2c0-1.2,1-2.1,2.1-2.1h1.9c1.2,0,2.1,1,2.1,2.1V44.9z"/>
<path class="st0" d="M53.8,21.3c0-1.3-0.7-2.5-1.9-3.1V13c0-1.3-0.8-4-3.7-4.2l-0.1,2.5c1.3,0.1,1.4,1.2,1.5,1.6v5.1
	c-1.2,0.4-2,1.7-2,3.1v3.4h6.3L53.8,21.3L53.8,21.3z"/>
<path class="st1" d="M85.6,39c-5,0-9.1,4.3-9.1,9.7s4.1,9.7,9.1,9.7s9.1-4.3,9.1-9.7S90.6,39,85.6,39z M85.6,54.5
	c-3,0-5.4-2.5-5.4-5.7c0-3.1,2.4-5.7,5.4-5.7c3,0,5.4,2.5,5.4,5.7C91,51.9,88.5,54.5,85.6,54.5z"/>
<path class="st0" d="M85.6,51.1c-1.2,0-2.2-1-2.2-2.4c0-1.3,1-2.4,2.2-2.4c1.2,0,2.2,1,2.2,2.4C87.8,50,86.8,51.1,85.6,51.1z"/>
<path class="st1" d="M48.6,39c-5,0-9.1,4.3-9.1,9.7s4.1,9.7,9.1,9.7s9.1-4.3,9.1-9.7S53.6,39,48.6,39z M48.6,54.5
	c-3,0-5.4-2.5-5.4-5.7c0-3.1,2.4-5.7,5.4-5.7s5.4,2.5,5.4,5.7C54,51.9,51.6,54.5,48.6,54.5z"/>
<path class="st0" d="M48.6,51.1c-1.2,0-2.2-1-2.2-2.4c0-1.3,1-2.4,2.2-2.4c1.2,0,2.2,1,2.2,2.4C50.8,50,49.8,51.1,48.6,51.1z"/>
<path class="st0" d="M76.9,5.6H57.5v23H43.9c-2.2,0-4,1.9-4,4.2v5.8c2.3-2.2,5.3-3.6,8.6-3.6c7.1,0,12.8,6.1,12.8,13.6
	c0,2.2-0.4,4.2-1.3,6h13.9c-0.8-1.8-1.3-3.8-1.3-6c0-7,5-12.8,11.5-13.6v-2.3L76.9,5.6z M74.9,32.9l-2.6-4.2H61.2V9.7h12.9l6.2,23.2
	H74.9z"/>
</svg>
