<?xml version="1.0" encoding="utf-8"?>
<!-- Generator: Adobe Illustrator 16.0.0, SVG Export Plug-In . SVG Version: 6.00 Build 0)  -->
<!DOCTYPE svg PUBLIC "-//W3C//DTD SVG 1.1//EN" "http://www.w3.org/Graphics/SVG/1.1/DTD/svg11.dtd">
<svg version="1.1" id="Layer_1" xmlns="http://www.w3.org/2000/svg" xmlns:xlink="http://www.w3.org/1999/xlink" x="0px" y="0px"
	 width="864px" height="885.088px" viewBox="0 179.273 864 885.088" enable-background="new 0 179.273 864 885.088"
	 xml:space="preserve">
<path fill="#FEA81A" d="M264.132,627.458c-11.092-9.339-24.201-11.488-38.222-11.425c-29.048,0.129-51.684-17.475-57.866-45.53
	c-4.798-21.779,1.945-40.233,17.993-55.72c18.67-18.019,23.116-39.619,14.452-63.93c-3.083-8.654-8.783-15.574-15.229-22.015
	c-18.743-18.722-23.68-41.697-14.117-64.76c9.285-22.403,29.165-35.085,55.212-35.229c37.605-0.204,61.788-24.335,61.851-61.725
	c0.044-25.938,12.758-45.957,35.111-55.297c22.946-9.585,46.396-4.618,64.954,13.756c26.908,26.64,60.041,26.61,87.141-0.077
	c18.666-18.382,42.027-23.28,64.964-13.622c22.324,9.399,34.956,29.391,35.002,55.389c0.065,37.286,24.31,61.454,61.997,61.529
	c13.369,0.026,25.758,2.591,36.204,11.531c12.488,27.516,8.862,49.093-12.204,71.078c-17.415,18.167-23.245,38.943-14.645,63.06
	c3.529,9.905,11.241,16.779,18.144,24.214c2.965,4.377,5.932,8.753,8.899,13.128c17.041,33.576,0.489,65.668-22.209,79.562
	c-11.03,6.75-22.959,8.913-35.627,8.658c-16.084-0.325-29.507,5.665-40.842,17.061c-11.466,11.527-15.994,25.484-15.86,41.354
	c0.237,28.352-13.083,47.864-38.994,58.688c-18.194,7.602-35.895,4.396-53.093-3.854c-1.353-0.686-2.532-1.598-3.573-2.688
	c-13.893-16.13-29.867-27.63-52.679-26.916c-15.681,0.495-28.53,6.681-38.89,17.482c-21.417,22.332-46.038,24.606-73.39,13.671
	c-9.686-7.178-12.345-18.296-12.281-28.767c0.128-21.066-4.058-39.737-20.016-54.566
	C265.259,630.518,264.97,628.757,264.132,627.458z"/>
<path fill="#D00028" d="M264.132,627.458c16.177,11.322,23.962,27.152,23.964,46.602c0.003,14.223,1.584,27.73,10.91,39.23
	c3.686,2.792,7.037,5.987,10.616,8.896c11.213,9.113,23.983,13.38,38.563,12.83c5.057-0.188,10.389-1.992,15.36,0.813
	c2.14,3.636,0.772,7.207-0.204,10.781c-18.536,67.837-37.356,135.593-55.862,203.437c-1.001,3.669-0.379,9.21-6.688,9.411
	c-3.618-10.502-7.231-21.004-10.863-31.498c-4.459-12.88-11.991-15.069-22.27-6.173c-26.761,23.165-53.451,46.417-80.079,69.74
	c-5.75,5.03-11.546,7.658-18.075,1.809c-5.42-4.854-3.176-10.769-1.607-16.465c12.738-46.294,25.477-92.59,38.225-138.881
	C225.456,767.812,244.794,697.635,264.132,627.458z"/>
<path fill="#D00028" d="M465.229,709.718c0.63,0.521,1.262,1.041,1.891,1.562c5.211,3.343,10.109,7.131,14.722,11.226
	c19.666,17.453,50.824,15.756,68.888,2.292c3.108-2.313,5.98-5.595,10.57-5.007c3.812,1.952,4.339,5.827,5.325,9.344
	c18.546,66.184,36.371,132.564,54.753,198.793c1.418,5.106,4.616,10.489,0.683,15.974c-8.741-7.418-17.448-14.875-26.231-22.245
	c-10.37-8.702-17.864-6.575-22.191,6.469c-11.117,33.507-22.186,67.033-33.104,100.604c-1.972,6.068-4.492,10.99-11.812,11.009
	c-7.872,0.019-10.548-5.286-11.994-11.826c-0.135-0.601-0.449-1.158-0.612-1.755c-15.015-54.663-30.016-109.329-45.025-163.995
	c-12.467-45.404-24.933-90.811-37.442-136.202c-0.394-1.435-1.233-2.746-1.867-4.115c-3.994-6.998-7.764-14.047-5.227-22.564
	C441.574,694.859,454.061,699.859,465.229,709.718z"/>
<path fill="#B6022D" d="M622.06,943.899c-2.741-19.328-9.502-37.641-14.538-56.373c-14.181-52.729-28.865-105.317-43.385-157.956
	c-0.884-3.208-1.08-6.758-3.955-9.12c-0.696-3.071,1.008-5.425,2.574-7.658c7.763-11.09,10.409-23.359,10.317-36.818
	c-0.112-16.646,5.182-31.661,17.269-43.672c2.484-2.467,4.686-6.075,9.247-4.728c12.4,44.553,24.874,89.088,37.183,133.667
	c19.782,71.642,39.458,143.313,59.174,214.975c1.722,6.26,4.282,12.771-2.195,17.896c-4.636,3.667-10.138,4.161-14.55,0.276
	C660.126,977.588,640.12,961.841,622.06,943.899z"/>
<path fill="#B6022D" d="M426.199,700.328c2.067,7.116,5.376,13.911,5.577,21.514c-11.162,40.043-22.425,80.061-33.46,120.141
	c-16.956,61.572-33.752,123.192-50.634,184.789c-1.858,6.786-4.094,13.428-12.915,13.377c-8.271-0.049-10.693-6.327-12.591-12.727
	c-6.748-22.775-15.911-44.791-21.385-67.963c6.27-8.197,6.518-18.52,9.152-27.847c17.806-63.021,34.898-126.243,52.167-189.418
	c0.561-2.058,0.482-4.285,0.706-6.433c14.414-8.951,26.305-21.231,40.226-30.727C409.552,700.595,417.375,696.331,426.199,700.328z"
	/>
<path fill="#F69219" d="M599.589,627.574c-16.497,11.593-24.294,28.136-23.905,47.624c0.351,17.405-4.682,32.104-15.502,45.252
	c-28.064,24.962-66.405,24.312-93.062-9.174c13.653,5.136,27.453,9.945,42.328,6.655c28.321-6.263,48.807-29.33,47.306-59.841
	c-1.503-30.612,20.399-54.168,47.549-60c9.417-2.022,18.983,0.152,28.585-1.877c33.858-7.163,54.998-44.479,41.059-79.385
	c-0.683-1.707-1.952-3.271-0.173-5.015c26.731,24.416,31.151,56.236,11.044,82.345c-11.038,14.331-25.821,22.11-44.115,21.893
	C625.774,615.878,611.679,617.956,599.589,627.574z"/>
<path fill="#F69219" d="M664.873,498.688c-15.043-7.371-21.786-20.8-23.979-36.162c-2.924-20.476,3.593-38.479,18.808-52.777
	c18.812-17.672,22.514-38.647,14.73-62.525c-0.688-2.103-2.985-4.317-0.854-6.887c30.294,20.887,30.792,66.008,3.958,90.372
	C656.768,449.566,654.714,473.343,664.873,498.688z"/>
<path fill="#E53950" d="M280.634,597.509c-22.606-27.371-37.253-58.604-42.49-93.604c-8.553-57.149,4.708-109.278,41.041-154.369
	c32.244-40.014,74.363-63.861,125.598-71.031c55.89-7.819,105.449,7.575,150.238,40.659c0.72,0.529,1.192,1.394,1.782,2.101
	c16.407,23.085,27.405,48.493,32.791,76.318c21.632,111.738-56.133,219.618-168.646,234.254
	c-44.365,5.771-85.791-2.746-124.928-23.952C290.515,604.9,286.382,600.036,280.634,597.509z"/>
<path fill="#B6022D" d="M573.012,336.619c38.271,38.99,55.494,86.048,55.04,140.399c-0.763,91.105-69.102,173.028-160.809,188.684
	c-65.498,11.179-124.078-5.456-172.319-53.024c4.451-3.442,7.651,0.214,10.762,2.262c34.25,22.551,71.911,33.457,112.797,32.16
	c48.747-1.547,91.4-18.629,127.089-52.262c35.389-33.352,55.614-74.523,60.312-122.626c4.23-43.275-5.332-83.94-28.66-121.016
	c-1.979-3.152-4.434-6.042-5.752-9.552C570.771,339.778,569.494,337.36,573.012,336.619z"/>
<path fill="#D00028" d="M573.012,336.619c-2.289,2.479,0.184,3.863,1.312,5.498c26.524,38.407,37.979,81.152,34.386,127.415
	c-3.063,39.434-17.182,75.017-42.151,106.085c-30.724,38.23-69.89,62.053-118.301,70.791c-51.079,9.22-98.22-0.672-141.993-28.087
	c-3.566-2.233-6.438-6.018-11.336-5.644c-6.27-3.638-9.626-10.019-14.293-15.167c3.239-1.985,4.988,0.86,7.145,2.254
	c37.197,24.034,78.265,34.712,122.021,30.965c83.593-7.155,151.454-62.241,173.829-143.948
	c15.303-55.875,6.763-109.162-24.665-158.33c-1.38-2.156-4.229-3.958-2.159-7.185C562.359,326.22,569.297,329.721,573.012,336.619z"
	/>
<path fill="#F69119" d="M426.199,700.328c-13.891,0.941-25.503,6.688-35.063,16.693c-8.026,8.395-17.19,15.045-28.316,18.74
	c-26.386,6.541-52.985-3.783-63.812-22.473c10.203,2.003,19.893,6.187,30.728,5.533c15.584-0.939,28.282-6.771,39.13-18.119
	c18.423-19.272,40.714-24.588,65.882-15.453c12.789,4.641,22.616,13.452,30.485,24.467
	C453.033,703.205,440.465,698.237,426.199,700.328z"/>
<path fill="#FEA81A" d="M381.756,418.573c9.458-1.207,14.228-8.891,18.821-15.419c14.295-20.329,26.233-42.078,34.847-65.498
	c3.344-9.091,7.478-11.007,16.244-7.145c14.19,6.252,21.201,22.276,16.655,39.249c-3.037,11.35-6.771,22.514-10.193,33.757
	c-10.718,7.057-10.283,6.988-8.241,20.14c3.01,19.377-3.64,35.384-18.854,47.641c-8.704,7.013-8.695,7.021-0.436,13.838
	c14.878,12.279,22.511,27.845,19.329,47.42c-0.928,5.711,2.076,10.18,2.833,15.311c-0.08,5.538-4.429,5.327-7.959,5.519
	c-14.001,0.756-27.868,0.578-40.616-6.682c-4.608-2.625-9.759-3.812-15.068-4.327c-3.332-0.325-6.921-0.297-9.048-3.716
	c-1.423-2.89-1.573-6.004-1.583-9.115c-0.104-33.251-0.114-66.503,0.02-99.754C378.521,425.824,378.194,421.589,381.756,418.573z"/>
<path fill="#F0F1F1" d="M303.452,545.31c-0.078-42.997-0.227-85.99-0.183-128.986c0.013-9.639,4.737-14.542,14.04-14.643
	c15.147-0.165,30.303,0.103,45.453,0.188c3.314,3.536,2.96,8.003,2.965,12.296c0.063,37.458,0.171,74.915-0.028,112.372
	c-0.09,16.366-5.892,22.383-22.18,23.354c-9.888,0.585-19.81,0.33-29.712,0.087C309.787,549.88,305.61,549.725,303.452,545.31z"/>
<path fill="#FEA71A" d="M493.351,403.786c16.766-0.039,33.531-0.122,50.296-0.103c13.896,0.021,23.067,7.034,24.067,18.248
	c0.889,9.955-7.284,18.428-20.999,21.331c2.127,2.007,4.136,3.716,5.93,5.622c9.515,10.1,5.673,24.959-7.812,31.085
	c-1.882,0.857-6.201-0.482-4.985,4.235c7.027,15.395-1.5,29.211-19.454,30.007c-17.636,0.784-35.335,0.938-52.976-0.229
	c-9.002-5.021-11.224-17.428-4.592-26.076c2.279-2.973,5.058-5.463,8.354-7.29c2.808-1.56,2.688-3.265,1.341-6.07
	c-7.81-16.273-4.526-25.615,11.843-34.713C472.565,424.513,476.229,409.812,493.351,403.786z"/>
<path fill="#D0D2D3" d="M303.452,545.31c17.216,3.149,34.528,3.232,51.543-0.507c7.088-1.56,7.848-8.65,7.836-15.228
	c-0.075-42.571-0.056-85.141-0.068-127.708c14.62-0.799,18.032,2.202,18.993,16.706c0.003,40.376,0.003,80.749,0.003,121.125
	c2.076,3.004,2.374,6.01,0.01,9.019c-0.972,12.686-5.327,16.837-17.982,16.897c-13.612,0.067-27.226,0.028-40.84,0.015
	C306.747,565.612,302.604,561.28,303.452,545.31z"/>
<path fill="#EE7816" d="M493.351,403.786c-5.117,4.643-12.258,7.648-13.057,15.814c-0.869,8.895,0.663,16.755,9.759,20.842
	c-0.412,3.341-2.809,1.977-4.31,2.297c-14.754,3.171-20.404,20.481-10.048,31.614c4.105,4.42,5.064,5.88-2.138,7.94
	c-12.219,3.494-15.749,17.837-8.21,29.43c2.564,2.168,7.362,2.792,5.547,8c-13.431,4.268-19.123,13.649-18.111,27.459
	c-0.794,0.626-1.569,0.601-2.319-0.07c-2.591-5.683-3.117-11.175-2.428-17.747c1.784-17.049-4.774-31.604-18.604-41.991
	c-11.891-8.926-12.178-9.121-0.149-17.403c14.785-10.182,21.953-30.977,17.35-50.341c-2.754-11.587-0.178-15.196,11.497-16.108
	C469.87,403.608,481.61,403.698,493.351,403.786z"/>
<path fill="#E7556E" d="M254.597,441.35c1.266-12.99,4.98-24.951,9.893-36.188c25.833-59.106,70.143-96.168,133.548-109.793
	c1.807-0.388,3.562-1.014,5.371-1.383c5.234-1.067,8.571,1.251,9.543,6.283c0.886,4.585-0.753,7.42-6.063,8.396
	c-18.345,3.368-35.907,8.999-52.476,17.918c-46.012,24.758-73.612,63.064-84.831,113.678c-1.024,4.628-1.627,9.873-7.831,9.662
	C256.454,449.746,254.623,445.74,254.597,441.35z"/>
<path fill="#FEA81A" d="M452.331,547.15c-2.882-17.534,2.246-25.271,18.565-28.013c2.316-2.562,5.48-2.729,8.553-2.781
	c11.74-0.209,23.482-0.328,35.221,0.066c4.089,0.143,8.02,0.928,10.752,4.461c1.72,0.727,3.438,1.45,5.155,2.173
	c5.667,13.262-0.908,27.147-15.535,29.393c-17.74,2.724-35.789,1.691-53.695,0.401C457.596,552.58,454.155,550.914,452.331,547.15z"
	/>
<path fill="#F69219" d="M452.331,547.15c7.065,3.886,14.744,3.898,22.51,3.759c9.265-0.165,18.536-0.039,27.806-0.039
	c22.221-0.005,28.074-5.832,27.935-27.812c9.103,5.204,8.981,14.035,6.854,22.043c-2.23,8.409-9.331,13.092-18.239,13.146
	c-31.584,0.185-63.167,0.046-94.753,0.104c-4.167,0.011-8.223-0.987-11.5-3.071c-9.673-6.142-20.208-7.126-31.174-6.56
	c-0.005-3.008-0.005-6.015-0.01-9.021c9.926-1,18.936,1.604,27.595,6.402c12.649,7.014,26.578,4.469,40.097,4.595
	c2.467,0.023,1.163-2.223,1.015-3.584C451.086,547.124,451.71,547.136,452.331,547.15z"/>
<path fill="#F69219" d="M525.422,520.885c-18.077-3.574-36.359-0.833-54.521-1.746c-1.851-2.472-3.7-4.942-5.552-7.415
	c15.749,0,31.514-0.446,47.243,0.104c20.666,0.719,29.905-6.386,27.259-27.625c7.509,4.638,9.69,11.544,7.831,19.741
	c-2.057,9.07-7.604,14.604-17.28,15.233C528.576,519.294,526.627,518.988,525.422,520.885z"/>
<path fill="#E7556D" d="M265.832,472.104c-0.33,4.285-2.414,7.396-6.57,7.554c-4.002,0.147-7.292-2.577-7.591-6.552
	c-0.282-3.705,1.557-7.425,6.031-7.807C262.406,464.9,264.875,467.805,265.832,472.104z"/>
</svg>
