<?xml version="1.0" encoding="utf-8"?>
<!-- Generator: Adobe Illustrator 16.0.0, SVG Export Plug-In . SVG Version: 6.00 Build 0)  -->
<!DOCTYPE svg PUBLIC "-//W3C//DTD SVG 1.1//EN" "http://www.w3.org/Graphics/SVG/1.1/DTD/svg11.dtd">
<svg version="1.1" id="Layer_1" xmlns="http://www.w3.org/2000/svg" xmlns:xlink="http://www.w3.org/1999/xlink" x="0px" y="0px"
	 width="864px" height="1296px" viewBox="0 0 864 1296" enable-background="new 0 0 864 1296" xml:space="preserve">
<path fill-rule="evenodd" clip-rule="evenodd" fill="#FFFFFF" d="M78.402,392.31c5.64-12.229,15.311-16.79,28.471-15.622
	c13.545,1.2,27.526,0.116,40.629,3.075c33.317,7.523,57.286,37.982,57.985,72.131c0.508,24.951,0.147,49.921,0.171,74.883
	c0.002,2.574,0.002,5.149,0.002,7.762c7.892-1.373,15.358-3.312,22.926-3.858c18.095-1.307,34.017,4.575,46.915,17.239
	c24.03,23.59,48.022,47.236,71.378,71.489c18.911,19.634,28.165,43.751,28.379,71.015c0.265,33.91,0.073,67.822,0.077,101.734
	c0,2.572,0,5.145,0,8.426c2.512,0.133,4.747,0.271,6.982,0.367c12.116,0.516,21.109,9.053,21.209,21.076
	c0.228,28.258,0.097,56.516,0.062,84.775c-0.014,10.83-6.77,16.867-15.528,21.402c-79.183,0-158.364,0-237.547,0
	c-12.223-5.633-16.106-15.297-15.751-28.449c0.68-25.164,0.153-50.359,0.215-75.543c0.037-14.35,8.43-22.887,22.593-23.281
	c1.784-0.051,3.563-0.311,5.165-0.459c1.655-9.211-0.219-16.791-5.213-24.367c-11.122-16.881-21.484-34.262-32.01-51.531
	c-15.769-25.875-31.415-51.83-47.112-77.75C78.402,561.986,78.402,477.148,78.402,392.31z M332.411,800.598
	c0.221-1.152,0.46-1.82,0.46-2.486c0-36.523,0.199-73.049-0.151-109.566c-0.136-14.072-4.765-27.27-14.531-37.417
	c-23.684-24.609-47.912-48.705-72.235-72.687c-7.196-7.095-18.13-7.373-26.085-2.021c-11.385,7.658-12.429,22.991-1.924,33.654
	c17.36,17.627,34.939,35.04,52.452,52.516c5.92,5.908,8.785,12.807,6.652,21.131c-4.184,16.33-23.399,21.615-35.747,9.582
	c-16.874-16.445-33.063-33.6-50.125-49.838c-19.647-18.701-28.519-41.136-28.097-68.22c0.621-40.049,0.289-80.114,0.102-120.172
	c-0.107-23.078-19.666-39.245-42.158-34.984c-0.062,1.062-0.189,2.202-0.189,3.343c-0.011,69.512-0.048,139.024,0.116,208.536
	c0.007,3.042,1.35,6.41,2.978,9.069c23.613,38.542,47.073,77.189,71.3,115.347c7.371,11.609,12.206,23.162,10.472,37.006
	c-0.282,2.258-0.039,4.58-0.039,7.209C248.189,800.598,290.04,800.598,332.411,800.598z M360.867,843.854
	c-61.398,0-122.239,0-182.922,0c0,14.227,0,27.965,0,41.57c61.243,0,121.918,0,182.922,0
	C360.867,871.5,360.867,857.932,360.867,843.854z"/>
<path fill-rule="evenodd" clip-rule="evenodd" fill="#FFFFFF" d="M492.695,928.205c-12.234-5.637-16.119-15.312-15.751-28.471
	c0.686-24.473,0.188-48.979,0.201-73.471c0.007-17.145,7.496-24.77,24.817-25.336c0.902-0.031,1.803-0.186,3.458-0.367
	c0-2.648,0-5.168,0-7.689c0-32.971,0.114-65.939-0.033-98.908c-0.138-31.045,10.763-57.365,32.798-79.216
	c21.236-21.059,42.354-42.238,63.454-63.437c20.076-20.173,43.5-25.856,70.484-16.634c0.638,0.218,1.359,0.186,2.974,0.387
	c0-2.668,0-5.125,0-7.581c0-22.607,0.696-45.241-0.146-67.818c-1.774-47.634,35.931-85.269,83.399-82.942
	c5.169,0.254,10.398,0.437,15.534-0.044c13.144-1.232,22.847,3.374,28.469,15.632c0,84.838,0,169.676,0,254.515
	c-2.622,4.703-5.075,9.511-7.894,14.093c-24.026,39.051-47.943,78.174-72.341,116.992c-4.647,7.396-5.169,14.611-4.161,22.602
	c1.055,0.18,1.723,0.371,2.398,0.398c18.322,0.689,25.432,7.979,25.437,26.129c0.008,24.242-0.489,48.496,0.197,72.717
	c0.374,13.152-3.558,22.799-15.749,28.449C651.06,928.205,571.876,928.205,492.695,928.205z M759.936,419.767
	c-24.857-2.662-42.345,12.618-42.395,36.476c-0.085,41.236-0.091,82.472,0,123.707c0.05,23.304-7.874,43.258-24.368,59.764
	c-17.493,17.498-34.949,35.031-52.504,52.464c-9.781,9.713-22.702,10.238-31.436,1.496c-8.796-8.811-8.262-21.584,1.48-31.383
	c16.446-16.542,32.983-32.994,49.468-49.501c1.828-1.834,3.693-3.661,5.28-5.693c5.69-7.295,6.192-16.885,1.422-24.435
	c-4.817-7.622-13.823-11.821-22.613-9.093c-4.699,1.46-9.284,4.653-12.853,8.152c-21.201,20.781-42.016,41.958-63.113,62.848
	c-13.985,13.847-20.686,30.396-20.533,50.101c0.252,32.988,0.062,65.977,0.083,98.967c0.002,2.273,0.204,4.549,0.314,6.795
	c42.55,0,84.567,0,126.929,0c0-3.32,0.27-6.158-0.048-8.928c-1.412-12.332,2.7-22.695,9.271-33.096
	c24.396-38.609,48.191-77.598,71.952-116.605c2.171-3.563,3.496-8.253,3.51-12.425c0.215-66.212,0.152-132.426,0.152-198.638
	C759.936,427.229,759.936,423.717,759.936,419.767z M520.08,843.662c0,14.322,0,28.059,0,41.561c61.364,0,122.207,0,182.901,0
	c0-14.139,0-27.707,0-41.561C641.913,843.662,581.238,843.662,520.08,843.662z"/>
<path fill-rule="evenodd" clip-rule="evenodd" fill="#FFFFFF" d="M451.69,204.252c12.087,4.882,25.381,7.937,36.05,14.972
	c41.749,27.538,49.728,84.205,18.436,123.276c-1.021,1.278-2.05,2.553-1.902,2.372c13.098,11.678,27.256,22.082,38.668,34.928
	c25.809,29.053,34.031,64.333,31.546,102.411c-0.726,11.13-10.028,18.862-21.794,18.932c-22.844,0.135-45.688,0.044-68.532,0.044
	c-51.106,0-102.211,0.011-153.317-0.005c-16.556-0.005-24.318-8.199-24.876-24.648c-1.416-41.681,11.017-78.025,41.376-107.173
	c9.074-8.714,19.824-15.684,29.972-23.58c-12.811-14.443-20.551-31.845-21.575-51.813c-2.202-42.88,26.672-79.72,68.771-88.258
	c1.554-0.315,3.038-0.963,4.556-1.456C436.608,204.252,444.148,204.252,451.69,204.252z M531.693,458.354
	c-3.229-47.816-44.502-85.038-93.161-84.4c-46.447,0.605-87.548,39.287-89.369,84.4
	C410.007,458.354,470.837,458.354,531.693,458.354z M440.072,331.488c23.26,0.128,42.494-18.759,42.698-41.932
	c0.206-23.3-18.569-42.579-41.747-42.863c-23.626-0.29-42.987,18.721-43.043,42.264
	C397.926,312.215,416.873,331.359,440.072,331.488z"/>
<path fill-rule="evenodd" clip-rule="evenodd" fill="#FFFFFF" d="M78.402,646.825c15.697,25.919,31.343,51.875,47.112,77.75
	c10.525,17.27,20.888,34.65,32.01,51.531c4.994,7.576,6.868,15.156,5.213,24.367c-1.602,0.148-3.381,0.408-5.165,0.459
	c-14.164,0.395-22.556,8.932-22.593,23.281c-0.062,25.184,0.464,50.379-0.215,75.543c-0.355,13.152,3.528,22.816,15.751,28.449
	c-24.039,0-48.076,0-72.112,0C78.402,834.412,78.402,740.617,78.402,646.825z"/>
<path fill-rule="evenodd" clip-rule="evenodd" fill="#FFFFFF" d="M730.242,928.205c12.191-5.65,16.123-15.297,15.749-28.449
	c-0.687-24.221-0.189-48.475-0.197-72.717c-0.005-18.15-7.114-25.439-25.437-26.129c-0.676-0.027-1.344-0.219-2.398-0.398
	c-1.008-7.99-0.486-15.205,4.161-22.602c24.397-38.818,48.314-77.941,72.341-116.992c2.818-4.582,5.271-9.391,7.894-14.093
	c0,93.792,0,187.587,0,281.38C778.315,928.205,754.279,928.205,730.242,928.205z"/>
</svg>
