<?xml version="1.0" encoding="utf-8"?>
<!-- Generator: Adobe Illustrator 16.0.0, SVG Export Plug-In . SVG Version: 6.00 Build 0)  -->
<!DOCTYPE svg PUBLIC "-//W3C//DTD SVG 1.0//EN" "http://www.w3.org/TR/2001/REC-SVG-20010904/DTD/svg10.dtd">
<svg version="1.0" id="Layer_1" xmlns="http://www.w3.org/2000/svg" xmlns:xlink="http://www.w3.org/1999/xlink" x="0px" y="0px"
	 width="864px" height="1296px" viewBox="0 0 864 1296" enable-background="new 0 0 864 1296" xml:space="preserve">
<g>
	<path fill="#FFFFFF" d="M57.928,402.299c5.64-12.229,15.311-16.79,28.471-15.622c13.545,1.2,27.526,0.116,40.629,3.075
		c33.317,7.523,57.286,37.982,57.985,72.13c0.508,24.951,0.147,49.921,0.171,74.884c0.002,2.573,0.002,5.148,0.002,7.762
		c7.892-1.373,15.358-3.312,22.926-3.858c18.095-1.307,34.017,4.575,46.915,17.239c24.03,23.59,48.022,47.236,71.378,71.489
		c18.911,19.633,28.165,43.75,28.379,71.014c0.266,33.91,0.073,67.822,0.077,101.734c0,2.572,0,5.145,0,8.426
		c2.512,0.133,4.747,0.271,6.982,0.367c12.115,0.516,21.108,9.053,21.209,21.076c0.228,28.258,0.097,56.516,0.062,84.775
		c-0.014,10.83-6.77,16.867-15.528,21.402c-79.183,0-158.364,0-237.546,0c-12.223-5.633-16.106-15.297-15.751-28.449
		c0.68-25.164,0.153-50.359,0.215-75.543c0.037-14.35,8.43-22.887,22.593-23.281c1.784-0.051,3.563-0.311,5.165-0.459
		c1.655-9.211-0.219-16.791-5.213-24.367c-11.122-16.881-21.484-34.262-32.01-51.531c-15.769-25.875-31.415-51.83-47.112-77.75
		C57.928,571.975,57.928,487.137,57.928,402.299z M311.938,810.586c0.221-1.15,0.46-1.818,0.46-2.484
		c0-36.523,0.199-73.051-0.151-109.566c-0.136-14.072-4.765-27.27-14.53-37.418c-23.685-24.609-47.913-48.705-72.235-72.686
		c-7.196-7.096-18.13-7.373-26.085-2.021c-11.385,7.658-12.429,22.991-1.924,33.654c17.36,17.627,34.939,35.04,52.452,52.516
		c5.92,5.908,8.785,12.807,6.652,21.131c-4.184,16.33-23.399,21.615-35.747,9.582c-16.874-16.445-33.062-33.6-50.125-49.838
		c-19.647-18.702-28.519-41.136-28.097-68.22c0.621-40.049,0.289-80.114,0.102-120.172c-0.107-23.078-19.666-39.245-42.158-34.984
		c-0.062,1.062-0.189,2.202-0.189,3.343c-0.011,69.513-0.048,139.024,0.116,208.536c0.007,3.042,1.35,6.41,2.978,9.07
		c23.613,38.541,47.073,77.188,71.3,115.346c7.371,11.609,12.206,23.162,10.472,37.006c-0.282,2.258-0.039,4.58-0.039,7.209
		C227.715,810.586,269.566,810.586,311.938,810.586z M340.394,853.842c-61.398,0-122.239,0-182.922,0c0,14.229,0,27.967,0,41.57
		c61.243,0,121.918,0,182.922,0C340.394,881.488,340.394,867.92,340.394,853.842z"/>
	<path fill="#FFFFFF" d="M472.222,938.193c-12.234-5.637-16.119-15.312-15.751-28.471c0.686-24.473,0.188-48.979,0.2-73.471
		c0.008-17.145,7.496-24.77,24.817-25.336c0.902-0.031,1.803-0.186,3.458-0.367c0-2.648,0-5.168,0-7.689
		c0-32.971,0.114-65.939-0.033-98.908c-0.138-31.045,10.764-57.365,32.798-79.215c21.236-21.06,42.354-42.238,63.454-63.438
		c20.076-20.173,43.5-25.855,70.484-16.634c0.638,0.218,1.359,0.187,2.974,0.387c0-2.668,0-5.125,0-7.58
		c0-22.607,0.696-45.241-0.146-67.818c-1.774-47.634,35.931-85.269,83.398-82.942c5.169,0.254,10.398,0.437,15.534-0.044
		c13.145-1.232,22.847,3.374,28.469,15.632c0,84.838,0,169.676,0,254.516c-2.622,4.703-5.074,9.51-7.894,14.092
		c-24.026,39.051-47.943,78.174-72.341,116.992c-4.647,7.396-5.169,14.611-4.161,22.602c1.055,0.182,1.723,0.371,2.398,0.398
		c18.321,0.689,25.432,7.979,25.437,26.129c0.008,24.242-0.489,48.496,0.197,72.717c0.374,13.152-3.559,22.799-15.749,28.449
		C630.586,938.193,551.402,938.193,472.222,938.193z M739.462,429.755c-24.856-2.661-42.345,12.618-42.395,36.477
		c-0.085,41.235-0.091,82.472,0,123.707c0.05,23.304-7.874,43.258-24.368,59.764c-17.493,17.498-34.949,35.031-52.504,52.463
		c-9.781,9.713-22.702,10.238-31.436,1.496c-8.797-8.811-8.263-21.584,1.479-31.383c16.446-16.541,32.983-32.994,49.468-49.5
		c1.828-1.834,3.693-3.661,5.28-5.693c5.69-7.295,6.192-16.885,1.422-24.435c-4.816-7.622-13.823-11.821-22.613-9.093
		c-4.698,1.46-9.283,4.652-12.853,8.151c-21.201,20.781-42.016,41.958-63.113,62.849c-13.984,13.846-20.686,30.395-20.532,50.1
		c0.252,32.988,0.062,65.977,0.082,98.967c0.003,2.273,0.204,4.549,0.314,6.795c42.55,0,84.567,0,126.929,0
		c0-3.318,0.271-6.158-0.048-8.928c-1.412-12.332,2.7-22.695,9.271-33.096c24.396-38.609,48.19-77.598,71.952-116.605
		c2.171-3.562,3.495-8.252,3.51-12.424c0.215-66.212,0.151-132.426,0.151-198.638C739.462,437.217,739.462,433.706,739.462,429.755z
		 M499.606,853.65c0,14.322,0,28.059,0,41.561c61.364,0,122.207,0,182.901,0c0-14.139,0-27.707,0-41.561
		C621.439,853.65,560.765,853.65,499.606,853.65z"/>
	<path fill="#FFFFFF" d="M431.217,214.241c12.087,4.882,25.381,7.937,36.05,14.972c41.749,27.538,49.728,84.205,18.436,123.276
		c-1.021,1.278-2.05,2.553-1.901,2.372c13.098,11.678,27.256,22.082,38.668,34.928c25.809,29.054,34.03,64.333,31.546,102.411
		c-0.727,11.13-10.028,18.862-21.794,18.932c-22.845,0.136-45.688,0.045-68.532,0.045c-51.106,0-102.211,0.011-153.317-0.006
		c-16.556-0.005-24.317-8.198-24.875-24.647c-1.416-41.681,11.017-78.025,41.375-107.173c9.074-8.714,19.824-15.684,29.973-23.58
		c-12.812-14.443-20.552-31.845-21.575-51.813c-2.202-42.88,26.672-79.72,68.771-88.258c1.555-0.315,3.038-0.963,4.557-1.456
		C416.135,214.241,423.675,214.241,431.217,214.241z M511.22,468.342c-3.229-47.815-44.502-85.038-93.161-84.399
		c-46.447,0.605-87.548,39.287-89.369,84.399C389.533,468.342,450.363,468.342,511.22,468.342z M419.599,341.477
		c23.26,0.128,42.494-18.759,42.697-41.932c0.206-23.3-18.568-42.579-41.746-42.863c-23.627-0.29-42.987,18.721-43.043,42.264
		C377.452,322.204,396.399,341.348,419.599,341.477z"/>
</g>
</svg>
