<?xml version="1.0" encoding="utf-8"?>
<!-- Generator: Adobe Illustrator 16.0.0, SVG Export Plug-In . SVG Version: 6.00 Build 0)  -->
<!DOCTYPE svg PUBLIC "-//W3C//DTD SVG 1.1//EN" "http://www.w3.org/Graphics/SVG/1.1/DTD/svg11.dtd">
<svg version="1.1" id="Layer_1" xmlns="http://www.w3.org/2000/svg" xmlns:xlink="http://www.w3.org/1999/xlink" x="0px" y="0px"
	 width="864px" height="1296px" viewBox="0 0 864 1296" enable-background="new 0 0 864 1296" xml:space="preserve">
<polygon fill="#ED9F4A" points="418.5,410.942 477.196,529.874 608.445,548.945 513.473,641.521 535.893,772.238 418.5,710.521 
	301.107,772.238 323.527,641.521 228.555,548.945 359.804,529.874 "/>
<path fill="#B6022D" d="M418.5,335.429c-148.102,0-268.162,120.061-268.162,268.162c0,148.101,120.061,268.161,268.162,268.161
	s268.162-120.061,268.162-268.161C686.662,455.489,566.602,335.429,418.5,335.429z M564.58,816.385L418.5,739.586l-146.08,76.799
	l27.898-162.662L182.138,538.523l163.322-23.732l73.04-147.995l73.04,147.995l163.323,23.732L536.682,653.723L564.58,816.385z"/>
</svg>
