<?xml version="1.0" encoding="utf-8"?>
<!-- Generator: Adobe Illustrator 16.0.0, SVG Export Plug-In . SVG Version: 6.00 Build 0)  -->
<!DOCTYPE svg PUBLIC "-//W3C//DTD SVG 1.0//EN" "http://www.w3.org/TR/2001/REC-SVG-20010904/DTD/svg10.dtd">
<svg version="1.0" id="Layer_1" xmlns="http://www.w3.org/2000/svg" xmlns:xlink="http://www.w3.org/1999/xlink" x="0px" y="0px"
	 width="100px" height="100px" viewBox="0 0 100 100" enable-background="new 0 0 100 100" xml:space="preserve">
<polygon fill="#545758" points="50,13 11.3,35.8 11.3,35.8 11.3,42 11.3,42 50,19.2 88.7,42 88.7,35.8 "/>
<path fill="#FAC312" d="M50,21.6l-8.6,5.1L16.6,41.3V87h9.5V41.4h2.1V87h9.5V41.4h1.8V58H49V41.5h1.8V58h9.5V41.5h1.8V87h9.5V41.5
	h2.2v40c0.033,0.039,0.067,0.077,0.101,0.116V87h4.711c0.029,0.032,0.06,0.067,0.089,0.1h4.6V41.3L50,21.6z"/>
</svg>
